<svg width="519" height="243" viewBox="0 0 519 243" fill="none" xmlns="http://www.w3.org/2000/svg">
<g filter="url(#filter0_d_1_134)">
<path d="M32 32C32 27.5817 35.5817 24 40 24H479C483.418 24 487 27.5817 487 32V195C487 199.418 483.418 203 479 203H40C35.5817 203 32 199.418 32 195V32Z" fill="white"/>
</g>
<path d="M139.688 125.391C139.547 126.594 139.102 127.523 138.352 128.18C137.607 128.831 136.615 129.156 135.375 129.156C134.031 129.156 132.953 128.674 132.141 127.711C131.333 126.747 130.93 125.458 130.93 123.844V122.75C130.93 121.693 131.117 120.763 131.492 119.961C131.872 119.159 132.409 118.544 133.102 118.117C133.794 117.685 134.596 117.469 135.508 117.469C136.716 117.469 137.685 117.807 138.414 118.484C139.143 119.156 139.568 120.089 139.688 121.281H138.18C138.049 120.375 137.766 119.719 137.328 119.312C136.896 118.906 136.289 118.703 135.508 118.703C134.549 118.703 133.797 119.057 133.25 119.766C132.708 120.474 132.438 121.482 132.438 122.789V123.891C132.438 125.125 132.695 126.107 133.211 126.836C133.727 127.565 134.448 127.93 135.375 127.93C136.208 127.93 136.846 127.742 137.289 127.367C137.737 126.987 138.034 126.328 138.18 125.391H139.688ZM141.133 124.695C141.133 123.867 141.294 123.122 141.617 122.461C141.945 121.799 142.398 121.289 142.977 120.93C143.56 120.57 144.224 120.391 144.969 120.391C146.12 120.391 147.049 120.789 147.758 121.586C148.471 122.383 148.828 123.443 148.828 124.766V124.867C148.828 125.69 148.669 126.43 148.352 127.086C148.039 127.737 147.589 128.245 147 128.609C146.417 128.974 145.745 129.156 144.984 129.156C143.839 129.156 142.909 128.758 142.195 127.961C141.487 127.164 141.133 126.109 141.133 124.797V124.695ZM142.586 124.867C142.586 125.805 142.802 126.557 143.234 127.125C143.672 127.693 144.255 127.977 144.984 127.977C145.719 127.977 146.302 127.69 146.734 127.117C147.167 126.539 147.383 125.732 147.383 124.695C147.383 123.768 147.161 123.018 146.719 122.445C146.281 121.867 145.698 121.578 144.969 121.578C144.255 121.578 143.68 121.862 143.242 122.43C142.805 122.997 142.586 123.81 142.586 124.867ZM152.211 129H150.766V117H152.211V129ZM156.102 129H154.656V117H156.102V129ZM161.93 129.156C160.784 129.156 159.852 128.781 159.133 128.031C158.414 127.276 158.055 126.268 158.055 125.008V124.742C158.055 123.904 158.214 123.156 158.531 122.5C158.854 121.839 159.302 121.323 159.875 120.953C160.453 120.578 161.078 120.391 161.75 120.391C162.849 120.391 163.703 120.753 164.312 121.477C164.922 122.201 165.227 123.237 165.227 124.586V125.188H159.5C159.521 126.021 159.763 126.695 160.227 127.211C160.695 127.721 161.289 127.977 162.008 127.977C162.518 127.977 162.951 127.872 163.305 127.664C163.659 127.456 163.969 127.18 164.234 126.836L165.117 127.523C164.409 128.612 163.346 129.156 161.93 129.156ZM161.75 121.578C161.167 121.578 160.677 121.792 160.281 122.219C159.885 122.641 159.641 123.234 159.547 124H163.781V123.891C163.74 123.156 163.542 122.589 163.188 122.188C162.833 121.781 162.354 121.578 161.75 121.578ZM170.297 127.977C170.812 127.977 171.263 127.82 171.648 127.508C172.034 127.195 172.247 126.805 172.289 126.336H173.656C173.63 126.82 173.464 127.281 173.156 127.719C172.849 128.156 172.438 128.505 171.922 128.766C171.411 129.026 170.87 129.156 170.297 129.156C169.146 129.156 168.229 128.773 167.547 128.008C166.87 127.237 166.531 126.185 166.531 124.852V124.609C166.531 123.786 166.682 123.055 166.984 122.414C167.286 121.773 167.719 121.276 168.281 120.922C168.849 120.568 169.518 120.391 170.289 120.391C171.237 120.391 172.023 120.674 172.648 121.242C173.279 121.81 173.615 122.547 173.656 123.453H172.289C172.247 122.906 172.039 122.458 171.664 122.109C171.294 121.755 170.836 121.578 170.289 121.578C169.555 121.578 168.984 121.844 168.578 122.375C168.177 122.901 167.977 123.664 167.977 124.664V124.938C167.977 125.911 168.177 126.661 168.578 127.188C168.979 127.714 169.552 127.977 170.297 127.977ZM177.242 118.5V120.547H178.82V121.664H177.242V126.906C177.242 127.245 177.312 127.5 177.453 127.672C177.594 127.839 177.833 127.922 178.172 127.922C178.339 127.922 178.568 127.891 178.859 127.828V129C178.479 129.104 178.109 129.156 177.75 129.156C177.104 129.156 176.617 128.961 176.289 128.57C175.961 128.18 175.797 127.625 175.797 126.906V121.664H174.258V120.547H175.797V118.5H177.242ZM191.625 124.867C191.625 126.154 191.331 127.19 190.742 127.977C190.154 128.763 189.357 129.156 188.352 129.156C187.326 129.156 186.518 128.831 185.93 128.18V132.25H184.484V120.547H185.805L185.875 121.484C186.464 120.755 187.281 120.391 188.328 120.391C189.344 120.391 190.146 120.773 190.734 121.539C191.328 122.305 191.625 123.37 191.625 124.734V124.867ZM190.18 124.703C190.18 123.75 189.977 122.997 189.57 122.445C189.164 121.893 188.607 121.617 187.898 121.617C187.023 121.617 186.367 122.005 185.93 122.781V126.82C186.362 127.591 187.023 127.977 187.914 127.977C188.607 127.977 189.156 127.703 189.562 127.156C189.974 126.604 190.18 125.786 190.18 124.703ZM193.086 124.695C193.086 123.867 193.247 123.122 193.57 122.461C193.898 121.799 194.352 121.289 194.93 120.93C195.513 120.57 196.177 120.391 196.922 120.391C198.073 120.391 199.003 120.789 199.711 121.586C200.424 122.383 200.781 123.443 200.781 124.766V124.867C200.781 125.69 200.622 126.43 200.305 127.086C199.992 127.737 199.542 128.245 198.953 128.609C198.37 128.974 197.698 129.156 196.938 129.156C195.792 129.156 194.862 128.758 194.148 127.961C193.44 127.164 193.086 126.109 193.086 124.797V124.695ZM194.539 124.867C194.539 125.805 194.755 126.557 195.188 127.125C195.625 127.693 196.208 127.977 196.938 127.977C197.672 127.977 198.255 127.69 198.688 127.117C199.12 126.539 199.336 125.732 199.336 124.695C199.336 123.768 199.115 123.018 198.672 122.445C198.234 121.867 197.651 121.578 196.922 121.578C196.208 121.578 195.633 121.862 195.195 122.43C194.758 122.997 194.539 123.81 194.539 124.867ZM204.164 129H202.719V120.547H204.164V129ZM202.602 118.305C202.602 118.07 202.672 117.872 202.812 117.711C202.958 117.549 203.172 117.469 203.453 117.469C203.734 117.469 203.948 117.549 204.094 117.711C204.24 117.872 204.312 118.07 204.312 118.305C204.312 118.539 204.24 118.734 204.094 118.891C203.948 119.047 203.734 119.125 203.453 119.125C203.172 119.125 202.958 119.047 202.812 118.891C202.672 118.734 202.602 118.539 202.602 118.305ZM207.852 120.547L207.898 121.609C208.544 120.797 209.388 120.391 210.43 120.391C212.216 120.391 213.117 121.398 213.133 123.414V129H211.688V123.406C211.682 122.797 211.542 122.346 211.266 122.055C210.995 121.763 210.57 121.617 209.992 121.617C209.523 121.617 209.112 121.742 208.758 121.992C208.404 122.242 208.128 122.57 207.93 122.977V129H206.484V120.547H207.852ZM217.273 118.5V120.547H218.852V121.664H217.273V126.906C217.273 127.245 217.344 127.5 217.484 127.672C217.625 127.839 217.865 127.922 218.203 127.922C218.37 127.922 218.599 127.891 218.891 127.828V129C218.51 129.104 218.141 129.156 217.781 129.156C217.135 129.156 216.648 128.961 216.32 128.57C215.992 128.18 215.828 127.625 215.828 126.906V121.664H214.289V120.547H215.828V118.5H217.273ZM225.469 126.758C225.469 126.367 225.32 126.065 225.023 125.852C224.732 125.633 224.219 125.445 223.484 125.289C222.755 125.133 222.174 124.945 221.742 124.727C221.315 124.508 220.997 124.247 220.789 123.945C220.586 123.643 220.484 123.284 220.484 122.867C220.484 122.174 220.776 121.589 221.359 121.109C221.948 120.63 222.698 120.391 223.609 120.391C224.568 120.391 225.344 120.638 225.938 121.133C226.536 121.628 226.836 122.26 226.836 123.031H225.383C225.383 122.635 225.214 122.294 224.875 122.008C224.542 121.721 224.12 121.578 223.609 121.578C223.083 121.578 222.672 121.693 222.375 121.922C222.078 122.151 221.93 122.451 221.93 122.82C221.93 123.169 222.068 123.432 222.344 123.609C222.62 123.786 223.117 123.956 223.836 124.117C224.56 124.279 225.146 124.471 225.594 124.695C226.042 124.919 226.372 125.19 226.586 125.508C226.805 125.82 226.914 126.203 226.914 126.656C226.914 127.411 226.612 128.018 226.008 128.477C225.404 128.93 224.62 129.156 223.656 129.156C222.979 129.156 222.38 129.036 221.859 128.797C221.339 128.557 220.93 128.224 220.633 127.797C220.341 127.365 220.195 126.898 220.195 126.398H221.641C221.667 126.883 221.859 127.268 222.219 127.555C222.583 127.836 223.062 127.977 223.656 127.977C224.203 127.977 224.641 127.867 224.969 127.648C225.302 127.424 225.469 127.128 225.469 126.758ZM232.383 124.695C232.383 123.867 232.544 123.122 232.867 122.461C233.195 121.799 233.648 121.289 234.227 120.93C234.81 120.57 235.474 120.391 236.219 120.391C237.37 120.391 238.299 120.789 239.008 121.586C239.721 122.383 240.078 123.443 240.078 124.766V124.867C240.078 125.69 239.919 126.43 239.602 127.086C239.289 127.737 238.839 128.245 238.25 128.609C237.667 128.974 236.995 129.156 236.234 129.156C235.089 129.156 234.159 128.758 233.445 127.961C232.737 127.164 232.383 126.109 232.383 124.797V124.695ZM233.836 124.867C233.836 125.805 234.052 126.557 234.484 127.125C234.922 127.693 235.505 127.977 236.234 127.977C236.969 127.977 237.552 127.69 237.984 127.117C238.417 126.539 238.633 125.732 238.633 124.695C238.633 123.768 238.411 123.018 237.969 122.445C237.531 121.867 236.948 121.578 236.219 121.578C235.505 121.578 234.93 121.862 234.492 122.43C234.055 122.997 233.836 123.81 233.836 124.867ZM243.258 120.547L243.305 121.609C243.951 120.797 244.794 120.391 245.836 120.391C247.622 120.391 248.523 121.398 248.539 123.414V129H247.094V123.406C247.089 122.797 246.948 122.346 246.672 122.055C246.401 121.763 245.977 121.617 245.398 121.617C244.93 121.617 244.518 121.742 244.164 121.992C243.81 122.242 243.534 122.57 243.336 122.977V129H241.891V120.547H243.258ZM258.195 129.156C257.049 129.156 256.117 128.781 255.398 128.031C254.68 127.276 254.32 126.268 254.32 125.008V124.742C254.32 123.904 254.479 123.156 254.797 122.5C255.12 121.839 255.568 121.323 256.141 120.953C256.719 120.578 257.344 120.391 258.016 120.391C259.115 120.391 259.969 120.753 260.578 121.477C261.188 122.201 261.492 123.237 261.492 124.586V125.188H255.766C255.786 126.021 256.029 126.695 256.492 127.211C256.961 127.721 257.555 127.977 258.273 127.977C258.784 127.977 259.216 127.872 259.57 127.664C259.924 127.456 260.234 127.18 260.5 126.836L261.383 127.523C260.674 128.612 259.612 129.156 258.195 129.156ZM258.016 121.578C257.432 121.578 256.943 121.792 256.547 122.219C256.151 122.641 255.906 123.234 255.812 124H260.047V123.891C260.005 123.156 259.807 122.589 259.453 122.188C259.099 121.781 258.62 121.578 258.016 121.578ZM268.391 129C268.307 128.833 268.24 128.536 268.188 128.109C267.516 128.807 266.714 129.156 265.781 129.156C264.948 129.156 264.263 128.922 263.727 128.453C263.195 127.979 262.93 127.38 262.93 126.656C262.93 125.776 263.263 125.094 263.93 124.609C264.602 124.12 265.544 123.875 266.758 123.875H268.164V123.211C268.164 122.706 268.013 122.305 267.711 122.008C267.409 121.706 266.964 121.555 266.375 121.555C265.859 121.555 265.427 121.685 265.078 121.945C264.729 122.206 264.555 122.521 264.555 122.891H263.102C263.102 122.469 263.25 122.062 263.547 121.672C263.849 121.276 264.255 120.964 264.766 120.734C265.281 120.505 265.846 120.391 266.461 120.391C267.435 120.391 268.198 120.635 268.75 121.125C269.302 121.609 269.589 122.279 269.609 123.133V127.023C269.609 127.799 269.708 128.417 269.906 128.875V129H268.391ZM265.992 127.898C266.445 127.898 266.875 127.781 267.281 127.547C267.688 127.312 267.982 127.008 268.164 126.633V124.898H267.031C265.26 124.898 264.375 125.417 264.375 126.453C264.375 126.906 264.526 127.26 264.828 127.516C265.13 127.771 265.518 127.898 265.992 127.898ZM275.266 127.977C275.781 127.977 276.232 127.82 276.617 127.508C277.003 127.195 277.216 126.805 277.258 126.336H278.625C278.599 126.82 278.432 127.281 278.125 127.719C277.818 128.156 277.406 128.505 276.891 128.766C276.38 129.026 275.839 129.156 275.266 129.156C274.115 129.156 273.198 128.773 272.516 128.008C271.839 127.237 271.5 126.185 271.5 124.852V124.609C271.5 123.786 271.651 123.055 271.953 122.414C272.255 121.773 272.688 121.276 273.25 120.922C273.818 120.568 274.487 120.391 275.258 120.391C276.206 120.391 276.992 120.674 277.617 121.242C278.247 121.81 278.583 122.547 278.625 123.453H277.258C277.216 122.906 277.008 122.458 276.633 122.109C276.263 121.755 275.805 121.578 275.258 121.578C274.523 121.578 273.953 121.844 273.547 122.375C273.146 122.901 272.945 123.664 272.945 124.664V124.938C272.945 125.911 273.146 126.661 273.547 127.188C273.948 127.714 274.521 127.977 275.266 127.977ZM281.695 121.57C282.336 120.784 283.169 120.391 284.195 120.391C285.982 120.391 286.883 121.398 286.898 123.414V129H285.453V123.406C285.448 122.797 285.307 122.346 285.031 122.055C284.76 121.763 284.336 121.617 283.758 121.617C283.289 121.617 282.878 121.742 282.523 121.992C282.169 122.242 281.893 122.57 281.695 122.977V129H280.25V117H281.695V121.57ZM297.953 126.758C297.953 126.367 297.805 126.065 297.508 125.852C297.216 125.633 296.703 125.445 295.969 125.289C295.24 125.133 294.659 124.945 294.227 124.727C293.799 124.508 293.482 124.247 293.273 123.945C293.07 123.643 292.969 123.284 292.969 122.867C292.969 122.174 293.26 121.589 293.844 121.109C294.432 120.63 295.182 120.391 296.094 120.391C297.052 120.391 297.828 120.638 298.422 121.133C299.021 121.628 299.32 122.26 299.32 123.031H297.867C297.867 122.635 297.698 122.294 297.359 122.008C297.026 121.721 296.604 121.578 296.094 121.578C295.568 121.578 295.156 121.693 294.859 121.922C294.562 122.151 294.414 122.451 294.414 122.82C294.414 123.169 294.552 123.432 294.828 123.609C295.104 123.786 295.602 123.956 296.32 124.117C297.044 124.279 297.63 124.471 298.078 124.695C298.526 124.919 298.857 125.19 299.07 125.508C299.289 125.82 299.398 126.203 299.398 126.656C299.398 127.411 299.096 128.018 298.492 128.477C297.888 128.93 297.104 129.156 296.141 129.156C295.464 129.156 294.865 129.036 294.344 128.797C293.823 128.557 293.414 128.224 293.117 127.797C292.826 127.365 292.68 126.898 292.68 126.398H294.125C294.151 126.883 294.344 127.268 294.703 127.555C295.068 127.836 295.547 127.977 296.141 127.977C296.688 127.977 297.125 127.867 297.453 127.648C297.786 127.424 297.953 127.128 297.953 126.758ZM303.242 118.5V120.547H304.82V121.664H303.242V126.906C303.242 127.245 303.312 127.5 303.453 127.672C303.594 127.839 303.833 127.922 304.172 127.922C304.339 127.922 304.568 127.891 304.859 127.828V129C304.479 129.104 304.109 129.156 303.75 129.156C303.104 129.156 302.617 128.961 302.289 128.57C301.961 128.18 301.797 127.625 301.797 126.906V121.664H300.258V120.547H301.797V118.5H303.242ZM305.977 124.695C305.977 123.867 306.138 123.122 306.461 122.461C306.789 121.799 307.242 121.289 307.82 120.93C308.404 120.57 309.068 120.391 309.812 120.391C310.964 120.391 311.893 120.789 312.602 121.586C313.315 122.383 313.672 123.443 313.672 124.766V124.867C313.672 125.69 313.513 126.43 313.195 127.086C312.883 127.737 312.432 128.245 311.844 128.609C311.26 128.974 310.589 129.156 309.828 129.156C308.682 129.156 307.753 128.758 307.039 127.961C306.331 127.164 305.977 126.109 305.977 124.797V124.695ZM307.43 124.867C307.43 125.805 307.646 126.557 308.078 127.125C308.516 127.693 309.099 127.977 309.828 127.977C310.562 127.977 311.146 127.69 311.578 127.117C312.01 126.539 312.227 125.732 312.227 124.695C312.227 123.768 312.005 123.018 311.562 122.445C311.125 121.867 310.542 121.578 309.812 121.578C309.099 121.578 308.523 121.862 308.086 122.43C307.648 122.997 307.43 123.81 307.43 124.867ZM319.57 121.844C319.352 121.807 319.115 121.789 318.859 121.789C317.911 121.789 317.268 122.193 316.93 123V129H315.484V120.547H316.891L316.914 121.523C317.388 120.768 318.06 120.391 318.93 120.391C319.211 120.391 319.424 120.427 319.57 120.5V121.844ZM324.258 129.156C323.112 129.156 322.18 128.781 321.461 128.031C320.742 127.276 320.383 126.268 320.383 125.008V124.742C320.383 123.904 320.542 123.156 320.859 122.5C321.182 121.839 321.63 121.323 322.203 120.953C322.781 120.578 323.406 120.391 324.078 120.391C325.177 120.391 326.031 120.753 326.641 121.477C327.25 122.201 327.555 123.237 327.555 124.586V125.188H321.828C321.849 126.021 322.091 126.695 322.555 127.211C323.023 127.721 323.617 127.977 324.336 127.977C324.846 127.977 325.279 127.872 325.633 127.664C325.987 127.456 326.297 127.18 326.562 126.836L327.445 127.523C326.737 128.612 325.674 129.156 324.258 129.156ZM324.078 121.578C323.495 121.578 323.005 121.792 322.609 122.219C322.214 122.641 321.969 123.234 321.875 124H326.109V123.891C326.068 123.156 325.87 122.589 325.516 122.188C325.161 121.781 324.682 121.578 324.078 121.578ZM338.422 129C338.339 128.833 338.271 128.536 338.219 128.109C337.547 128.807 336.745 129.156 335.812 129.156C334.979 129.156 334.294 128.922 333.758 128.453C333.227 127.979 332.961 127.38 332.961 126.656C332.961 125.776 333.294 125.094 333.961 124.609C334.633 124.12 335.576 123.875 336.789 123.875H338.195V123.211C338.195 122.706 338.044 122.305 337.742 122.008C337.44 121.706 336.995 121.555 336.406 121.555C335.891 121.555 335.458 121.685 335.109 121.945C334.76 122.206 334.586 122.521 334.586 122.891H333.133C333.133 122.469 333.281 122.062 333.578 121.672C333.88 121.276 334.286 120.964 334.797 120.734C335.312 120.505 335.878 120.391 336.492 120.391C337.466 120.391 338.229 120.635 338.781 121.125C339.333 121.609 339.62 122.279 339.641 123.133V127.023C339.641 127.799 339.74 128.417 339.938 128.875V129H338.422ZM336.023 127.898C336.477 127.898 336.906 127.781 337.312 127.547C337.719 127.312 338.013 127.008 338.195 126.633V124.898H337.062C335.292 124.898 334.406 125.417 334.406 126.453C334.406 126.906 334.557 127.26 334.859 127.516C335.161 127.771 335.549 127.898 336.023 127.898ZM343.273 120.547L343.32 121.609C343.966 120.797 344.81 120.391 345.852 120.391C347.638 120.391 348.539 121.398 348.555 123.414V129H347.109V123.406C347.104 122.797 346.964 122.346 346.688 122.055C346.417 121.763 345.992 121.617 345.414 121.617C344.945 121.617 344.534 121.742 344.18 121.992C343.826 122.242 343.549 122.57 343.352 122.977V129H341.906V120.547H343.273ZM350.383 124.703C350.383 123.406 350.69 122.365 351.305 121.578C351.919 120.786 352.724 120.391 353.719 120.391C354.708 120.391 355.492 120.729 356.07 121.406V117H357.516V129H356.188L356.117 128.094C355.539 128.802 354.734 129.156 353.703 129.156C352.724 129.156 351.924 128.755 351.305 127.953C350.69 127.151 350.383 126.104 350.383 124.812V124.703ZM351.828 124.867C351.828 125.826 352.026 126.576 352.422 127.117C352.818 127.659 353.365 127.93 354.062 127.93C354.979 127.93 355.648 127.518 356.07 126.695V122.812C355.638 122.016 354.974 121.617 354.078 121.617C353.37 121.617 352.818 121.891 352.422 122.438C352.026 122.984 351.828 123.794 351.828 124.867ZM367.82 121.844C367.602 121.807 367.365 121.789 367.109 121.789C366.161 121.789 365.518 122.193 365.18 123V129H363.734V120.547H365.141L365.164 121.523C365.638 120.768 366.31 120.391 367.18 120.391C367.461 120.391 367.674 120.427 367.82 120.5V121.844ZM372.508 129.156C371.362 129.156 370.43 128.781 369.711 128.031C368.992 127.276 368.633 126.268 368.633 125.008V124.742C368.633 123.904 368.792 123.156 369.109 122.5C369.432 121.839 369.88 121.323 370.453 120.953C371.031 120.578 371.656 120.391 372.328 120.391C373.427 120.391 374.281 120.753 374.891 121.477C375.5 122.201 375.805 123.237 375.805 124.586V125.188H370.078C370.099 126.021 370.341 126.695 370.805 127.211C371.273 127.721 371.867 127.977 372.586 127.977C373.096 127.977 373.529 127.872 373.883 127.664C374.237 127.456 374.547 127.18 374.812 126.836L375.695 127.523C374.987 128.612 373.924 129.156 372.508 129.156ZM372.328 121.578C371.745 121.578 371.255 121.792 370.859 122.219C370.464 122.641 370.219 123.234 370.125 124H374.359V123.891C374.318 123.156 374.12 122.589 373.766 122.188C373.411 121.781 372.932 121.578 372.328 121.578ZM377.133 124.703C377.133 123.406 377.44 122.365 378.055 121.578C378.669 120.786 379.474 120.391 380.469 120.391C381.458 120.391 382.242 120.729 382.82 121.406V117H384.266V129H382.938L382.867 128.094C382.289 128.802 381.484 129.156 380.453 129.156C379.474 129.156 378.674 128.755 378.055 127.953C377.44 127.151 377.133 126.104 377.133 124.812V124.703ZM378.578 124.867C378.578 125.826 378.776 126.576 379.172 127.117C379.568 127.659 380.115 127.93 380.812 127.93C381.729 127.93 382.398 127.518 382.82 126.695V122.812C382.388 122.016 381.724 121.617 380.828 121.617C380.12 121.617 379.568 121.891 379.172 122.438C378.776 122.984 378.578 123.794 378.578 124.867ZM390.023 129.156C388.878 129.156 387.945 128.781 387.227 128.031C386.508 127.276 386.148 126.268 386.148 125.008V124.742C386.148 123.904 386.307 123.156 386.625 122.5C386.948 121.839 387.396 121.323 387.969 120.953C388.547 120.578 389.172 120.391 389.844 120.391C390.943 120.391 391.797 120.753 392.406 121.477C393.016 122.201 393.32 123.237 393.32 124.586V125.188H387.594C387.615 126.021 387.857 126.695 388.32 127.211C388.789 127.721 389.383 127.977 390.102 127.977C390.612 127.977 391.044 127.872 391.398 127.664C391.753 127.456 392.062 127.18 392.328 126.836L393.211 127.523C392.503 128.612 391.44 129.156 390.023 129.156ZM389.844 121.578C389.26 121.578 388.771 121.792 388.375 122.219C387.979 122.641 387.734 123.234 387.641 124H391.875V123.891C391.833 123.156 391.635 122.589 391.281 122.188C390.927 121.781 390.448 121.578 389.844 121.578ZM398.508 129.156C397.362 129.156 396.43 128.781 395.711 128.031C394.992 127.276 394.633 126.268 394.633 125.008V124.742C394.633 123.904 394.792 123.156 395.109 122.5C395.432 121.839 395.88 121.323 396.453 120.953C397.031 120.578 397.656 120.391 398.328 120.391C399.427 120.391 400.281 120.753 400.891 121.477C401.5 122.201 401.805 123.237 401.805 124.586V125.188H396.078C396.099 126.021 396.341 126.695 396.805 127.211C397.273 127.721 397.867 127.977 398.586 127.977C399.096 127.977 399.529 127.872 399.883 127.664C400.237 127.456 400.547 127.18 400.812 126.836L401.695 127.523C400.987 128.612 399.924 129.156 398.508 129.156ZM398.328 121.578C397.745 121.578 397.255 121.792 396.859 122.219C396.464 122.641 396.219 123.234 396.125 124H400.359V123.891C400.318 123.156 400.12 122.589 399.766 122.188C399.411 121.781 398.932 121.578 398.328 121.578ZM404.844 120.547L404.883 121.484C405.503 120.755 406.339 120.391 407.391 120.391C408.573 120.391 409.378 120.844 409.805 121.75C410.086 121.344 410.451 121.016 410.898 120.766C411.352 120.516 411.885 120.391 412.5 120.391C414.354 120.391 415.297 121.372 415.328 123.336V129H413.883V123.422C413.883 122.818 413.745 122.367 413.469 122.07C413.193 121.768 412.729 121.617 412.078 121.617C411.542 121.617 411.096 121.779 410.742 122.102C410.388 122.419 410.182 122.849 410.125 123.391V129H408.672V123.461C408.672 122.232 408.07 121.617 406.867 121.617C405.919 121.617 405.271 122.021 404.922 122.828V129H403.477V120.547H404.844ZM133.055 142.5V144.547H134.633V145.664H133.055V150.906C133.055 151.245 133.125 151.5 133.266 151.672C133.406 151.839 133.646 151.922 133.984 151.922C134.151 151.922 134.38 151.891 134.672 151.828V153C134.292 153.104 133.922 153.156 133.562 153.156C132.917 153.156 132.43 152.961 132.102 152.57C131.773 152.18 131.609 151.625 131.609 150.906V145.664H130.07V144.547H131.609V142.5H133.055ZM137.773 145.57C138.414 144.784 139.247 144.391 140.273 144.391C142.06 144.391 142.961 145.398 142.977 147.414V153H141.531V147.406C141.526 146.797 141.385 146.346 141.109 146.055C140.839 145.763 140.414 145.617 139.836 145.617C139.367 145.617 138.956 145.742 138.602 145.992C138.247 146.242 137.971 146.57 137.773 146.977V153H136.328V141H137.773V145.57ZM148.648 153.156C147.503 153.156 146.57 152.781 145.852 152.031C145.133 151.276 144.773 150.268 144.773 149.008V148.742C144.773 147.904 144.932 147.156 145.25 146.5C145.573 145.839 146.021 145.323 146.594 144.953C147.172 144.578 147.797 144.391 148.469 144.391C149.568 144.391 150.422 144.753 151.031 145.477C151.641 146.201 151.945 147.237 151.945 148.586V149.188H146.219C146.24 150.021 146.482 150.695 146.945 151.211C147.414 151.721 148.008 151.977 148.727 151.977C149.237 151.977 149.669 151.872 150.023 151.664C150.378 151.456 150.688 151.18 150.953 150.836L151.836 151.523C151.128 152.612 150.065 153.156 148.648 153.156ZM148.469 145.578C147.885 145.578 147.396 145.792 147 146.219C146.604 146.641 146.359 147.234 146.266 148H150.5V147.891C150.458 147.156 150.26 146.589 149.906 146.188C149.552 145.781 149.073 145.578 148.469 145.578ZM154.984 144.547L155.023 145.484C155.643 144.755 156.479 144.391 157.531 144.391C158.714 144.391 159.518 144.844 159.945 145.75C160.227 145.344 160.591 145.016 161.039 144.766C161.492 144.516 162.026 144.391 162.641 144.391C164.495 144.391 165.438 145.372 165.469 147.336V153H164.023V147.422C164.023 146.818 163.885 146.367 163.609 146.07C163.333 145.768 162.87 145.617 162.219 145.617C161.682 145.617 161.237 145.779 160.883 146.102C160.529 146.419 160.323 146.849 160.266 147.391V153H158.812V147.461C158.812 146.232 158.211 145.617 157.008 145.617C156.06 145.617 155.411 146.021 155.062 146.828V153H153.617V144.547H154.984ZM173.586 142.5V144.547H175.164V145.664H173.586V150.906C173.586 151.245 173.656 151.5 173.797 151.672C173.938 151.839 174.177 151.922 174.516 151.922C174.682 151.922 174.911 151.891 175.203 151.828V153C174.823 153.104 174.453 153.156 174.094 153.156C173.448 153.156 172.961 152.961 172.633 152.57C172.305 152.18 172.141 151.625 172.141 150.906V145.664H170.602V144.547H172.141V142.5H173.586ZM176.32 148.695C176.32 147.867 176.482 147.122 176.805 146.461C177.133 145.799 177.586 145.289 178.164 144.93C178.747 144.57 179.411 144.391 180.156 144.391C181.307 144.391 182.237 144.789 182.945 145.586C183.659 146.383 184.016 147.443 184.016 148.766V148.867C184.016 149.69 183.857 150.43 183.539 151.086C183.227 151.737 182.776 152.245 182.188 152.609C181.604 152.974 180.932 153.156 180.172 153.156C179.026 153.156 178.096 152.758 177.383 151.961C176.674 151.164 176.32 150.109 176.32 148.797V148.695ZM177.773 148.867C177.773 149.805 177.99 150.557 178.422 151.125C178.859 151.693 179.443 151.977 180.172 151.977C180.906 151.977 181.49 151.69 181.922 151.117C182.354 150.539 182.57 149.732 182.57 148.695C182.57 147.768 182.349 147.018 181.906 146.445C181.469 145.867 180.885 145.578 180.156 145.578C179.443 145.578 178.867 145.862 178.43 146.43C177.992 146.997 177.773 147.81 177.773 148.867ZM193.188 151.977C193.703 151.977 194.154 151.82 194.539 151.508C194.924 151.195 195.138 150.805 195.18 150.336H196.547C196.521 150.82 196.354 151.281 196.047 151.719C195.74 152.156 195.328 152.505 194.812 152.766C194.302 153.026 193.76 153.156 193.188 153.156C192.036 153.156 191.12 152.773 190.438 152.008C189.76 151.237 189.422 150.185 189.422 148.852V148.609C189.422 147.786 189.573 147.055 189.875 146.414C190.177 145.773 190.609 145.276 191.172 144.922C191.74 144.568 192.409 144.391 193.18 144.391C194.128 144.391 194.914 144.674 195.539 145.242C196.169 145.81 196.505 146.547 196.547 147.453H195.18C195.138 146.906 194.93 146.458 194.555 146.109C194.185 145.755 193.727 145.578 193.18 145.578C192.445 145.578 191.875 145.844 191.469 146.375C191.068 146.901 190.867 147.664 190.867 148.664V148.938C190.867 149.911 191.068 150.661 191.469 151.188C191.87 151.714 192.443 151.977 193.188 151.977ZM199.617 145.57C200.258 144.784 201.091 144.391 202.117 144.391C203.904 144.391 204.805 145.398 204.82 147.414V153H203.375V147.406C203.37 146.797 203.229 146.346 202.953 146.055C202.682 145.763 202.258 145.617 201.68 145.617C201.211 145.617 200.799 145.742 200.445 145.992C200.091 146.242 199.815 146.57 199.617 146.977V153H198.172V141H199.617V145.57ZM212.203 153C212.12 152.833 212.052 152.536 212 152.109C211.328 152.807 210.526 153.156 209.594 153.156C208.76 153.156 208.076 152.922 207.539 152.453C207.008 151.979 206.742 151.38 206.742 150.656C206.742 149.776 207.076 149.094 207.742 148.609C208.414 148.12 209.357 147.875 210.57 147.875H211.977V147.211C211.977 146.706 211.826 146.305 211.523 146.008C211.221 145.706 210.776 145.555 210.188 145.555C209.672 145.555 209.24 145.685 208.891 145.945C208.542 146.206 208.367 146.521 208.367 146.891H206.914C206.914 146.469 207.062 146.062 207.359 145.672C207.661 145.276 208.068 144.964 208.578 144.734C209.094 144.505 209.659 144.391 210.273 144.391C211.247 144.391 212.01 144.635 212.562 145.125C213.115 145.609 213.401 146.279 213.422 147.133V151.023C213.422 151.799 213.521 152.417 213.719 152.875V153H212.203ZM209.805 151.898C210.258 151.898 210.688 151.781 211.094 151.547C211.5 151.312 211.794 151.008 211.977 150.633V148.898H210.844C209.073 148.898 208.188 149.417 208.188 150.453C208.188 150.906 208.339 151.26 208.641 151.516C208.943 151.771 209.331 151.898 209.805 151.898ZM217.055 144.547L217.102 145.609C217.747 144.797 218.591 144.391 219.633 144.391C221.419 144.391 222.32 145.398 222.336 147.414V153H220.891V147.406C220.885 146.797 220.745 146.346 220.469 146.055C220.198 145.763 219.773 145.617 219.195 145.617C218.727 145.617 218.315 145.742 217.961 145.992C217.607 146.242 217.331 146.57 217.133 146.977V153H215.688V144.547H217.055ZM224.172 148.703C224.172 147.385 224.477 146.339 225.086 145.562C225.695 144.781 226.503 144.391 227.508 144.391C228.539 144.391 229.344 144.755 229.922 145.484L229.992 144.547H231.312V152.797C231.312 153.891 230.987 154.753 230.336 155.383C229.69 156.013 228.82 156.328 227.727 156.328C227.117 156.328 226.521 156.198 225.938 155.938C225.354 155.677 224.909 155.32 224.602 154.867L225.352 154C225.971 154.766 226.729 155.148 227.625 155.148C228.328 155.148 228.875 154.951 229.266 154.555C229.661 154.159 229.859 153.602 229.859 152.883V152.156C229.281 152.823 228.492 153.156 227.492 153.156C226.503 153.156 225.701 152.758 225.086 151.961C224.477 151.164 224.172 150.078 224.172 148.703ZM225.625 148.867C225.625 149.82 225.82 150.57 226.211 151.117C226.602 151.659 227.148 151.93 227.852 151.93C228.763 151.93 229.432 151.516 229.859 150.688V146.828C229.417 146.021 228.753 145.617 227.867 145.617C227.164 145.617 226.615 145.891 226.219 146.438C225.823 146.984 225.625 147.794 225.625 148.867ZM237.008 153.156C235.862 153.156 234.93 152.781 234.211 152.031C233.492 151.276 233.133 150.268 233.133 149.008V148.742C233.133 147.904 233.292 147.156 233.609 146.5C233.932 145.839 234.38 145.323 234.953 144.953C235.531 144.578 236.156 144.391 236.828 144.391C237.927 144.391 238.781 144.753 239.391 145.477C240 146.201 240.305 147.237 240.305 148.586V149.188H234.578C234.599 150.021 234.841 150.695 235.305 151.211C235.773 151.721 236.367 151.977 237.086 151.977C237.596 151.977 238.029 151.872 238.383 151.664C238.737 151.456 239.047 151.18 239.312 150.836L240.195 151.523C239.487 152.612 238.424 153.156 237.008 153.156ZM236.828 145.578C236.245 145.578 235.755 145.792 235.359 146.219C234.964 146.641 234.719 147.234 234.625 148H238.859V147.891C238.818 147.156 238.62 146.589 238.266 146.188C237.911 145.781 237.432 145.578 236.828 145.578ZM246.664 153V145.664H245.328V144.547H246.664V143.68C246.664 142.773 246.906 142.073 247.391 141.578C247.875 141.083 248.56 140.836 249.445 140.836C249.779 140.836 250.109 140.88 250.438 140.969L250.359 142.141C250.115 142.094 249.854 142.07 249.578 142.07C249.109 142.07 248.747 142.208 248.492 142.484C248.237 142.755 248.109 143.146 248.109 143.656V144.547H249.914V145.664H248.109V153H246.664ZM251.133 148.695C251.133 147.867 251.294 147.122 251.617 146.461C251.945 145.799 252.398 145.289 252.977 144.93C253.56 144.57 254.224 144.391 254.969 144.391C256.12 144.391 257.049 144.789 257.758 145.586C258.471 146.383 258.828 147.443 258.828 148.766V148.867C258.828 149.69 258.669 150.43 258.352 151.086C258.039 151.737 257.589 152.245 257 152.609C256.417 152.974 255.745 153.156 254.984 153.156C253.839 153.156 252.909 152.758 252.195 151.961C251.487 151.164 251.133 150.109 251.133 148.797V148.695ZM252.586 148.867C252.586 149.805 252.802 150.557 253.234 151.125C253.672 151.693 254.255 151.977 254.984 151.977C255.719 151.977 256.302 151.69 256.734 151.117C257.167 150.539 257.383 149.732 257.383 148.695C257.383 147.768 257.161 147.018 256.719 146.445C256.281 145.867 255.698 145.578 254.969 145.578C254.255 145.578 253.68 145.862 253.242 146.43C252.805 146.997 252.586 147.81 252.586 148.867ZM264.727 145.844C264.508 145.807 264.271 145.789 264.016 145.789C263.068 145.789 262.424 146.193 262.086 147V153H260.641V144.547H262.047L262.07 145.523C262.544 144.768 263.216 144.391 264.086 144.391C264.367 144.391 264.581 144.427 264.727 144.5V145.844ZM277.805 142.859H274.148V153H272.656V142.859H269.008V141.625H277.805V142.859ZM281.992 153.156C280.846 153.156 279.914 152.781 279.195 152.031C278.477 151.276 278.117 150.268 278.117 149.008V148.742C278.117 147.904 278.276 147.156 278.594 146.5C278.917 145.839 279.365 145.323 279.938 144.953C280.516 144.578 281.141 144.391 281.812 144.391C282.911 144.391 283.766 144.753 284.375 145.477C284.984 146.201 285.289 147.237 285.289 148.586V149.188H279.562C279.583 150.021 279.826 150.695 280.289 151.211C280.758 151.721 281.352 151.977 282.07 151.977C282.581 151.977 283.013 151.872 283.367 151.664C283.721 151.456 284.031 151.18 284.297 150.836L285.18 151.523C284.471 152.612 283.409 153.156 281.992 153.156ZM281.812 145.578C281.229 145.578 280.74 145.792 280.344 146.219C279.948 146.641 279.703 147.234 279.609 148H283.844V147.891C283.802 147.156 283.604 146.589 283.25 146.188C282.896 145.781 282.417 145.578 281.812 145.578ZM292.188 153C292.104 152.833 292.036 152.536 291.984 152.109C291.312 152.807 290.51 153.156 289.578 153.156C288.745 153.156 288.06 152.922 287.523 152.453C286.992 151.979 286.727 151.38 286.727 150.656C286.727 149.776 287.06 149.094 287.727 148.609C288.398 148.12 289.341 147.875 290.555 147.875H291.961V147.211C291.961 146.706 291.81 146.305 291.508 146.008C291.206 145.706 290.76 145.555 290.172 145.555C289.656 145.555 289.224 145.685 288.875 145.945C288.526 146.206 288.352 146.521 288.352 146.891H286.898C286.898 146.469 287.047 146.062 287.344 145.672C287.646 145.276 288.052 144.964 288.562 144.734C289.078 144.505 289.643 144.391 290.258 144.391C291.232 144.391 291.995 144.635 292.547 145.125C293.099 145.609 293.385 146.279 293.406 147.133V151.023C293.406 151.799 293.505 152.417 293.703 152.875V153H292.188ZM289.789 151.898C290.242 151.898 290.672 151.781 291.078 151.547C291.484 151.312 291.779 151.008 291.961 150.633V148.898H290.828C289.057 148.898 288.172 149.417 288.172 150.453C288.172 150.906 288.323 151.26 288.625 151.516C288.927 151.771 289.315 151.898 289.789 151.898ZM300.594 150.758C300.594 150.367 300.445 150.065 300.148 149.852C299.857 149.633 299.344 149.445 298.609 149.289C297.88 149.133 297.299 148.945 296.867 148.727C296.44 148.508 296.122 148.247 295.914 147.945C295.711 147.643 295.609 147.284 295.609 146.867C295.609 146.174 295.901 145.589 296.484 145.109C297.073 144.63 297.823 144.391 298.734 144.391C299.693 144.391 300.469 144.638 301.062 145.133C301.661 145.628 301.961 146.26 301.961 147.031H300.508C300.508 146.635 300.339 146.294 300 146.008C299.667 145.721 299.245 145.578 298.734 145.578C298.208 145.578 297.797 145.693 297.5 145.922C297.203 146.151 297.055 146.451 297.055 146.82C297.055 147.169 297.193 147.432 297.469 147.609C297.745 147.786 298.242 147.956 298.961 148.117C299.685 148.279 300.271 148.471 300.719 148.695C301.167 148.919 301.497 149.19 301.711 149.508C301.93 149.82 302.039 150.203 302.039 150.656C302.039 151.411 301.737 152.018 301.133 152.477C300.529 152.93 299.745 153.156 298.781 153.156C298.104 153.156 297.505 153.036 296.984 152.797C296.464 152.557 296.055 152.224 295.758 151.797C295.466 151.365 295.32 150.898 295.32 150.398H296.766C296.792 150.883 296.984 151.268 297.344 151.555C297.708 151.836 298.188 151.977 298.781 151.977C299.328 151.977 299.766 151.867 300.094 151.648C300.427 151.424 300.594 151.128 300.594 150.758ZM303.953 152.242C303.953 151.992 304.026 151.784 304.172 151.617C304.323 151.451 304.547 151.367 304.844 151.367C305.141 151.367 305.365 151.451 305.516 151.617C305.672 151.784 305.75 151.992 305.75 152.242C305.75 152.482 305.672 152.682 305.516 152.844C305.365 153.005 305.141 153.086 304.844 153.086C304.547 153.086 304.323 153.005 304.172 152.844C304.026 152.682 303.953 152.482 303.953 152.242Z" fill="#576D81"/>
<path d="M135.249 80.0581H143.025V83H131.587V65.2266H135.249V80.0581ZM144.555 76.2739C144.555 74.9637 144.808 73.7959 145.312 72.7705C145.817 71.7451 146.541 70.9517 147.485 70.3901C148.437 69.8286 149.54 69.5479 150.793 69.5479C152.575 69.5479 154.028 70.0931 155.151 71.1836C156.282 72.2741 156.913 73.7552 157.043 75.627L157.068 76.5303C157.068 78.5566 156.502 80.1842 155.371 81.4131C154.24 82.6338 152.722 83.2441 150.818 83.2441C148.913 83.2441 147.392 82.6338 146.252 81.4131C145.121 80.1924 144.555 78.5322 144.555 76.4326V76.2739ZM148.083 76.5303C148.083 77.7835 148.319 78.7438 148.791 79.4111C149.263 80.0703 149.939 80.3999 150.818 80.3999C151.672 80.3999 152.339 80.0744 152.82 79.4233C153.3 78.7642 153.54 77.7144 153.54 76.2739C153.54 75.0451 153.3 74.0929 152.82 73.4175C152.339 72.742 151.664 72.4043 150.793 72.4043C149.931 72.4043 149.263 72.742 148.791 73.4175C148.319 74.0848 148.083 75.1224 148.083 76.5303ZM164.177 78.0073L166.618 69.792H170.402L165.092 85.0508L164.799 85.7466C164.01 87.4718 162.708 88.3345 160.893 88.3345C160.38 88.3345 159.86 88.2572 159.331 88.1025V85.4292L159.868 85.4414C160.535 85.4414 161.032 85.3397 161.357 85.1362C161.691 84.9328 161.951 84.5951 162.138 84.123L162.553 83.0366L157.927 69.792H161.723L164.177 78.0073ZM179.453 83C179.29 82.6826 179.172 82.2879 179.099 81.8159C178.244 82.7681 177.133 83.2441 175.766 83.2441C174.472 83.2441 173.398 82.8698 172.543 82.1211C171.697 81.3724 171.274 80.4284 171.274 79.2891C171.274 77.8893 171.791 76.8151 172.824 76.0664C173.866 75.3177 175.367 74.9393 177.329 74.9312H178.952V74.1743C178.952 73.564 178.793 73.0757 178.476 72.7095C178.167 72.3433 177.674 72.1602 176.999 72.1602C176.405 72.1602 175.937 72.3026 175.595 72.5874C175.261 72.8722 175.095 73.2629 175.095 73.7593H171.567C171.567 72.9943 171.803 72.2863 172.275 71.6353C172.747 70.9842 173.414 70.4756 174.277 70.1094C175.139 69.735 176.108 69.5479 177.182 69.5479C178.81 69.5479 180.1 69.9588 181.052 70.7808C182.012 71.5946 182.492 72.742 182.492 74.2231V79.9482C182.5 81.2015 182.675 82.1496 183.017 82.7925V83H179.453ZM176.535 80.5464C177.056 80.5464 177.536 80.4325 177.975 80.2046C178.415 79.9686 178.74 79.6553 178.952 79.2646V76.9941H177.634C175.868 76.9941 174.928 77.6045 174.814 78.8252L174.802 79.0327C174.802 79.4722 174.956 79.8343 175.266 80.1191C175.575 80.404 175.998 80.5464 176.535 80.5464ZM189.125 83H185.585V64.25H189.125V83ZM196.466 66.5449V69.792H198.725V72.3799H196.466V78.9717C196.466 79.46 196.56 79.8099 196.747 80.0215C196.934 80.2331 197.292 80.3389 197.821 80.3389C198.212 80.3389 198.558 80.3104 198.859 80.2534V82.9268C198.167 83.1383 197.455 83.2441 196.723 83.2441C194.249 83.2441 192.987 81.995 192.938 79.4966V72.3799H191.01V69.792H192.938V66.5449H196.466ZM205.822 78.0073L208.263 69.792H212.047L206.737 85.0508L206.444 85.7466C205.655 87.4718 204.353 88.3345 202.538 88.3345C202.025 88.3345 201.504 88.2572 200.975 88.1025V85.4292L201.512 85.4414C202.18 85.4414 202.676 85.3397 203.002 85.1362C203.335 84.9328 203.596 84.5951 203.783 84.123L204.198 83.0366L199.572 69.792H203.368L205.822 78.0073ZM223.958 76.7378V83H220.296V65.2266H227.23C228.565 65.2266 229.736 65.4707 230.746 65.959C231.763 66.4473 232.544 67.1431 233.089 68.0464C233.635 68.9416 233.907 69.9629 233.907 71.1104C233.907 72.8519 233.309 74.2272 232.113 75.2363C230.925 76.2373 229.277 76.7378 227.169 76.7378H223.958ZM223.958 73.7715H227.23C228.198 73.7715 228.935 73.5436 229.439 73.0879C229.952 72.6322 230.208 71.9811 230.208 71.1348C230.208 70.264 229.952 69.5601 229.439 69.0229C228.927 68.4858 228.219 68.2091 227.315 68.1929H223.958V73.7715ZM235.682 76.2739C235.682 74.9637 235.934 73.7959 236.439 72.7705C236.943 71.7451 237.668 70.9517 238.612 70.3901C239.564 69.8286 240.666 69.5479 241.92 69.5479C243.702 69.5479 245.154 70.0931 246.278 71.1836C247.409 72.2741 248.039 73.7552 248.17 75.627L248.194 76.5303C248.194 78.5566 247.628 80.1842 246.497 81.4131C245.366 82.6338 243.848 83.2441 241.944 83.2441C240.04 83.2441 238.518 82.6338 237.379 81.4131C236.247 80.1924 235.682 78.5322 235.682 76.4326V76.2739ZM239.21 76.5303C239.21 77.7835 239.446 78.7438 239.918 79.4111C240.39 80.0703 241.065 80.3999 241.944 80.3999C242.799 80.3999 243.466 80.0744 243.946 79.4233C244.426 78.7642 244.666 77.7144 244.666 76.2739C244.666 75.0451 244.426 74.0929 243.946 73.4175C243.466 72.742 242.79 72.4043 241.92 72.4043C241.057 72.4043 240.39 72.742 239.918 73.4175C239.446 74.0848 239.21 75.1224 239.21 76.5303ZM254.29 83H250.75V69.792H254.29V83ZM250.542 66.374C250.542 65.8451 250.717 65.4097 251.067 65.0679C251.425 64.7261 251.91 64.5552 252.52 64.5552C253.122 64.5552 253.602 64.7261 253.96 65.0679C254.319 65.4097 254.498 65.8451 254.498 66.374C254.498 66.9111 254.314 67.3506 253.948 67.6924C253.59 68.0342 253.114 68.2051 252.52 68.2051C251.926 68.2051 251.446 68.0342 251.08 67.6924C250.722 67.3506 250.542 66.9111 250.542 66.374ZM260.655 69.792L260.764 71.3179C261.708 70.1379 262.974 69.5479 264.561 69.5479C265.961 69.5479 267.002 69.9588 267.686 70.7808C268.369 71.6027 268.719 72.8315 268.736 74.4673V83H265.208V74.5527C265.208 73.804 265.045 73.2629 264.72 72.9292C264.394 72.5874 263.853 72.4165 263.096 72.4165C262.103 72.4165 261.359 72.8397 260.862 73.686V83H257.334V69.792H260.655ZM275.845 66.5449V69.792H278.103V72.3799H275.845V78.9717C275.845 79.46 275.938 79.8099 276.126 80.0215C276.313 80.2331 276.671 80.3389 277.2 80.3389C277.59 80.3389 277.936 80.3104 278.237 80.2534V82.9268C277.546 83.1383 276.834 83.2441 276.101 83.2441C273.627 83.2441 272.366 81.995 272.317 79.4966V72.3799H270.388V69.792H272.317V66.5449H275.845ZM287.422 79.3501C287.422 78.9188 287.206 78.5811 286.775 78.3369C286.352 78.0846 285.668 77.8608 284.724 77.6655C281.583 77.0063 280.012 75.6717 280.012 73.6616C280.012 72.4897 280.496 71.5132 281.465 70.7319C282.441 69.9425 283.715 69.5479 285.286 69.5479C286.962 69.5479 288.301 69.9425 289.302 70.7319C290.311 71.5213 290.815 72.5467 290.815 73.8081H287.288C287.288 73.3035 287.125 72.8885 286.799 72.563C286.474 72.2293 285.965 72.0625 285.273 72.0625C284.679 72.0625 284.219 72.1968 283.894 72.4653C283.568 72.7339 283.406 73.0757 283.406 73.4907C283.406 73.8813 283.589 74.1987 283.955 74.4429C284.329 74.6789 284.956 74.8864 285.835 75.0654C286.714 75.2363 287.454 75.4316 288.057 75.6514C289.92 76.335 290.852 77.519 290.852 79.2036C290.852 80.408 290.335 81.3846 289.302 82.1333C288.268 82.8739 286.934 83.2441 285.298 83.2441C284.191 83.2441 283.206 83.0488 282.344 82.6582C281.489 82.2594 280.818 81.7183 280.329 81.0347C279.841 80.3429 279.597 79.5983 279.597 78.8008H282.942C282.974 79.4274 283.206 79.9076 283.638 80.2412C284.069 80.5749 284.647 80.7417 285.371 80.7417C286.046 80.7417 286.555 80.6156 286.897 80.3633C287.247 80.1029 287.422 79.7651 287.422 79.3501Z" fill="#0F2336"/>
<path d="M57 57C57 52.5817 60.5817 49 65 49H99C103.418 49 107 52.5817 107 57V91C107 95.4183 103.418 99 99 99H65C60.5817 99 57 95.4183 57 91V57Z" fill="#F6F7F8"/>
<g clip-path="url(#clip0_1_134)">
<path d="M87.2 82.5V90L81.9 87.9L76.4 90V82.4C77.8 84.3 79.5 83.9 81.2 83.1C81.5 83 81.8 83 82.1 83.1C84 83.9 85.8 84.4 87.2 82.5Z" fill="#00C9C9"/>
<path d="M81.8 65.2999C78.8 65.2999 76.5 67.6999 76.5 70.5999C76.5 73.5999 78.9 75.8999 81.8 75.8999C84.7 75.8999 87.1 73.4999 87.1 70.5999C87.1 67.6999 84.8 65.2999 81.8 65.2999Z" fill="#00C9C9"/>
<path d="M93.2 71.1L92.7 70.3C92.4 69.8 92.3 69.2 92.4 68.6L92.7 67.4C93 66.4 92.5 65.3 91.5 64.9L90.6 64.5C90 64.2 89.7 63.7 89.5 63.2L89.1 62C88.8 61 87.8 60.4 86.7 60.5L85.7 60.6C85.1 60.7 84.5 60.5 84 60.2L83.1 59.4C82.3 58.8 81.1 58.8 80.3 59.4L79.6 60.2C79.2 60.5 78.7 60.7 78 60.7L76.9 60.5C75.9 60.4 74.9 61.1 74.5 62L74.2 63C74 63.6 73.7 64.1 73.1 64.3L72.1 64.8C71.1 65.3 70.7 66.3 71 67.4L71.2 68.4C71.4 69 71.2 69.5 71 70.1L70.4 71.1C69.9 72 70 73.1 70.8 73.8L71.5 74.5C72 74.9 72.2 75.4 72.3 76V77.2C72.4 78.2 73.1 79.0999 74.2 79.2999L75.2 79.5C75.8 79.6 76.3 79.7999 76.7 80.4L77.4 81.2999C78 82.1999 79.1 82.5 80.1 82.1L81 81.7C81.6 81.4 82.1 81.4 82.7 81.7L83.7 82.1C84.7 82.5 85.8 82.1999 86.4 81.2999L87 80.5C87.3 80 87.8 79.7 88.5 79.6L89.6 79.4C90.6 79.1999 91.4 78.2999 91.4 77.2999L91.5 76.2999C91.5 75.6999 91.7 75.1 92.2 74.7L93 73.9C93.6 73.1 93.8 72 93.2 71.1ZM81.9 77.6C78 77.6 75 74.5 75 70.7C75 66.9 78 63.8 81.9 63.8C85.7 63.8 88.8 66.9 88.8 70.7C88.7 74.5 85.7 77.6 81.9 77.6Z" fill="#00C9C9"/>
</g>
<defs>
<filter id="filter0_d_1_134" x="0" y="0" width="519" height="243" filterUnits="userSpaceOnUse" color-interpolation-filters="sRGB">
<feFlood flood-opacity="0" result="BackgroundImageFix"/>
<feColorMatrix in="SourceAlpha" type="matrix" values="0 0 0 0 0 0 0 0 0 0 0 0 0 0 0 0 0 0 127 0" result="hardAlpha"/>
<feOffset dy="8"/>
<feGaussianBlur stdDeviation="16"/>
<feColorMatrix type="matrix" values="0 0 0 0 0.0588235 0 0 0 0 0.137255 0 0 0 0 0.211765 0 0 0 0.06 0"/>
<feBlend mode="normal" in2="BackgroundImageFix" result="effect1_dropShadow_1_134"/>
<feBlend mode="normal" in="SourceGraphic" in2="effect1_dropShadow_1_134" result="shape"/>
</filter>
<clipPath id="clip0_1_134">
<rect width="24" height="31" fill="white" transform="translate(70 59)"/>
</clipPath>
</defs>
</svg>
