<svg width="519" height="243" viewBox="0 0 519 243" fill="none" xmlns="http://www.w3.org/2000/svg">
<g filter="url(#filter0_d_1_156)">
<path d="M32 32C32 27.5817 35.5817 24 40 24H479C483.418 24 487 27.5817 487 32V195C487 199.418 483.418 203 479 203H40C35.5817 203 32 199.418 32 195V32Z" fill="white"/>
</g>
<path d="M134.789 123.336L137.758 117.625H139.461L135.539 124.758V129H134.039V124.758L130.117 117.625H131.836L134.789 123.336ZM139.805 124.695C139.805 123.867 139.966 123.122 140.289 122.461C140.617 121.799 141.07 121.289 141.648 120.93C142.232 120.57 142.896 120.391 143.641 120.391C144.792 120.391 145.721 120.789 146.43 121.586C147.143 122.383 147.5 123.443 147.5 124.766V124.867C147.5 125.69 147.341 126.43 147.023 127.086C146.711 127.737 146.26 128.245 145.672 128.609C145.089 128.974 144.417 129.156 143.656 129.156C142.51 129.156 141.581 128.758 140.867 127.961C140.159 127.164 139.805 126.109 139.805 124.797V124.695ZM141.258 124.867C141.258 125.805 141.474 126.557 141.906 127.125C142.344 127.693 142.927 127.977 143.656 127.977C144.391 127.977 144.974 127.69 145.406 127.117C145.839 126.539 146.055 125.732 146.055 124.695C146.055 123.768 145.833 123.018 145.391 122.445C144.953 121.867 144.37 121.578 143.641 121.578C142.927 121.578 142.352 121.862 141.914 122.43C141.477 122.997 141.258 123.81 141.258 124.867ZM154.531 128.164C153.969 128.826 153.143 129.156 152.055 129.156C151.154 129.156 150.466 128.896 149.992 128.375C149.523 127.849 149.286 127.073 149.281 126.047V120.547H150.727V126.008C150.727 127.289 151.247 127.93 152.289 127.93C153.393 127.93 154.128 127.518 154.492 126.695V120.547H155.938V129H154.562L154.531 128.164ZM165.5 127.977C166.016 127.977 166.466 127.82 166.852 127.508C167.237 127.195 167.451 126.805 167.492 126.336H168.859C168.833 126.82 168.667 127.281 168.359 127.719C168.052 128.156 167.641 128.505 167.125 128.766C166.615 129.026 166.073 129.156 165.5 129.156C164.349 129.156 163.432 128.773 162.75 128.008C162.073 127.237 161.734 126.185 161.734 124.852V124.609C161.734 123.786 161.885 123.055 162.188 122.414C162.49 121.773 162.922 121.276 163.484 120.922C164.052 120.568 164.721 120.391 165.492 120.391C166.44 120.391 167.227 120.674 167.852 121.242C168.482 121.81 168.818 122.547 168.859 123.453H167.492C167.451 122.906 167.242 122.458 166.867 122.109C166.497 121.755 166.039 121.578 165.492 121.578C164.758 121.578 164.188 121.844 163.781 122.375C163.38 122.901 163.18 123.664 163.18 124.664V124.938C163.18 125.911 163.38 126.661 163.781 127.188C164.182 127.714 164.755 127.977 165.5 127.977ZM175.703 129C175.62 128.833 175.552 128.536 175.5 128.109C174.828 128.807 174.026 129.156 173.094 129.156C172.26 129.156 171.576 128.922 171.039 128.453C170.508 127.979 170.242 127.38 170.242 126.656C170.242 125.776 170.576 125.094 171.242 124.609C171.914 124.12 172.857 123.875 174.07 123.875H175.477V123.211C175.477 122.706 175.326 122.305 175.023 122.008C174.721 121.706 174.276 121.555 173.688 121.555C173.172 121.555 172.74 121.685 172.391 121.945C172.042 122.206 171.867 122.521 171.867 122.891H170.414C170.414 122.469 170.562 122.062 170.859 121.672C171.161 121.276 171.568 120.964 172.078 120.734C172.594 120.505 173.159 120.391 173.773 120.391C174.747 120.391 175.51 120.635 176.062 121.125C176.615 121.609 176.901 122.279 176.922 123.133V127.023C176.922 127.799 177.021 128.417 177.219 128.875V129H175.703ZM173.305 127.898C173.758 127.898 174.188 127.781 174.594 127.547C175 127.312 175.294 127.008 175.477 126.633V124.898H174.344C172.573 124.898 171.688 125.417 171.688 126.453C171.688 126.906 171.839 127.26 172.141 127.516C172.443 127.771 172.831 127.898 173.305 127.898ZM180.555 120.547L180.602 121.609C181.247 120.797 182.091 120.391 183.133 120.391C184.919 120.391 185.82 121.398 185.836 123.414V129H184.391V123.406C184.385 122.797 184.245 122.346 183.969 122.055C183.698 121.763 183.273 121.617 182.695 121.617C182.227 121.617 181.815 121.742 181.461 121.992C181.107 122.242 180.831 122.57 180.633 122.977V129H179.188V120.547H180.555ZM195.492 129.156C194.346 129.156 193.414 128.781 192.695 128.031C191.977 127.276 191.617 126.268 191.617 125.008V124.742C191.617 123.904 191.776 123.156 192.094 122.5C192.417 121.839 192.865 121.323 193.438 120.953C194.016 120.578 194.641 120.391 195.312 120.391C196.411 120.391 197.266 120.753 197.875 121.477C198.484 122.201 198.789 123.237 198.789 124.586V125.188H193.062C193.083 126.021 193.326 126.695 193.789 127.211C194.258 127.721 194.852 127.977 195.57 127.977C196.081 127.977 196.513 127.872 196.867 127.664C197.221 127.456 197.531 127.18 197.797 126.836L198.68 127.523C197.971 128.612 196.909 129.156 195.492 129.156ZM195.312 121.578C194.729 121.578 194.24 121.792 193.844 122.219C193.448 122.641 193.203 123.234 193.109 124H197.344V123.891C197.302 123.156 197.104 122.589 196.75 122.188C196.396 121.781 195.917 121.578 195.312 121.578ZM201.836 120.547L201.883 121.609C202.529 120.797 203.372 120.391 204.414 120.391C206.201 120.391 207.102 121.398 207.117 123.414V129H205.672V123.406C205.667 122.797 205.526 122.346 205.25 122.055C204.979 121.763 204.555 121.617 203.977 121.617C203.508 121.617 203.096 121.742 202.742 121.992C202.388 122.242 202.112 122.57 201.914 122.977V129H200.469V120.547H201.836ZM210.789 120.547V129.977C210.789 131.602 210.052 132.414 208.578 132.414C208.26 132.414 207.966 132.367 207.695 132.273V131.117C207.862 131.159 208.081 131.18 208.352 131.18C208.674 131.18 208.919 131.091 209.086 130.914C209.258 130.742 209.344 130.44 209.344 130.008V120.547H210.789ZM209.195 118.305C209.195 118.076 209.266 117.88 209.406 117.719C209.552 117.552 209.763 117.469 210.039 117.469C210.32 117.469 210.534 117.549 210.68 117.711C210.826 117.872 210.898 118.07 210.898 118.305C210.898 118.539 210.826 118.734 210.68 118.891C210.534 119.047 210.32 119.125 210.039 119.125C209.758 119.125 209.547 119.047 209.406 118.891C209.266 118.734 209.195 118.539 209.195 118.305ZM212.742 124.695C212.742 123.867 212.904 123.122 213.227 122.461C213.555 121.799 214.008 121.289 214.586 120.93C215.169 120.57 215.833 120.391 216.578 120.391C217.729 120.391 218.659 120.789 219.367 121.586C220.081 122.383 220.438 123.443 220.438 124.766V124.867C220.438 125.69 220.279 126.43 219.961 127.086C219.648 127.737 219.198 128.245 218.609 128.609C218.026 128.974 217.354 129.156 216.594 129.156C215.448 129.156 214.518 128.758 213.805 127.961C213.096 127.164 212.742 126.109 212.742 124.797V124.695ZM214.195 124.867C214.195 125.805 214.411 126.557 214.844 127.125C215.281 127.693 215.865 127.977 216.594 127.977C217.328 127.977 217.911 127.69 218.344 127.117C218.776 126.539 218.992 125.732 218.992 124.695C218.992 123.768 218.771 123.018 218.328 122.445C217.891 121.867 217.307 121.578 216.578 121.578C215.865 121.578 215.289 121.862 214.852 122.43C214.414 122.997 214.195 123.81 214.195 124.867ZM224.891 126.883L226.859 120.547H228.406L225.008 130.305C224.482 131.711 223.646 132.414 222.5 132.414L222.227 132.391L221.688 132.289V131.117L222.078 131.148C222.568 131.148 222.948 131.049 223.219 130.852C223.495 130.654 223.721 130.292 223.898 129.766L224.219 128.906L221.203 120.547H222.781L224.891 126.883ZM235.242 129H233.797V117H235.242V129ZM237.18 124.695C237.18 123.867 237.341 123.122 237.664 122.461C237.992 121.799 238.445 121.289 239.023 120.93C239.607 120.57 240.271 120.391 241.016 120.391C242.167 120.391 243.096 120.789 243.805 121.586C244.518 122.383 244.875 123.443 244.875 124.766V124.867C244.875 125.69 244.716 126.43 244.398 127.086C244.086 127.737 243.635 128.245 243.047 128.609C242.464 128.974 241.792 129.156 241.031 129.156C239.885 129.156 238.956 128.758 238.242 127.961C237.534 127.164 237.18 126.109 237.18 124.797V124.695ZM238.633 124.867C238.633 125.805 238.849 126.557 239.281 127.125C239.719 127.693 240.302 127.977 241.031 127.977C241.766 127.977 242.349 127.69 242.781 127.117C243.214 126.539 243.43 125.732 243.43 124.695C243.43 123.768 243.208 123.018 242.766 122.445C242.328 121.867 241.745 121.578 241.016 121.578C240.302 121.578 239.727 121.862 239.289 122.43C238.852 122.997 238.633 123.81 238.633 124.867ZM248.648 118.5V120.547H250.227V121.664H248.648V126.906C248.648 127.245 248.719 127.5 248.859 127.672C249 127.839 249.24 127.922 249.578 127.922C249.745 127.922 249.974 127.891 250.266 127.828V129C249.885 129.104 249.516 129.156 249.156 129.156C248.51 129.156 248.023 128.961 247.695 128.57C247.367 128.18 247.203 127.625 247.203 126.906V121.664H245.664V120.547H247.203V118.5H248.648ZM256.844 126.758C256.844 126.367 256.695 126.065 256.398 125.852C256.107 125.633 255.594 125.445 254.859 125.289C254.13 125.133 253.549 124.945 253.117 124.727C252.69 124.508 252.372 124.247 252.164 123.945C251.961 123.643 251.859 123.284 251.859 122.867C251.859 122.174 252.151 121.589 252.734 121.109C253.323 120.63 254.073 120.391 254.984 120.391C255.943 120.391 256.719 120.638 257.312 121.133C257.911 121.628 258.211 122.26 258.211 123.031H256.758C256.758 122.635 256.589 122.294 256.25 122.008C255.917 121.721 255.495 121.578 254.984 121.578C254.458 121.578 254.047 121.693 253.75 121.922C253.453 122.151 253.305 122.451 253.305 122.82C253.305 123.169 253.443 123.432 253.719 123.609C253.995 123.786 254.492 123.956 255.211 124.117C255.935 124.279 256.521 124.471 256.969 124.695C257.417 124.919 257.747 125.19 257.961 125.508C258.18 125.82 258.289 126.203 258.289 126.656C258.289 127.411 257.987 128.018 257.383 128.477C256.779 128.93 255.995 129.156 255.031 129.156C254.354 129.156 253.755 129.036 253.234 128.797C252.714 128.557 252.305 128.224 252.008 127.797C251.716 127.365 251.57 126.898 251.57 126.398H253.016C253.042 126.883 253.234 127.268 253.594 127.555C253.958 127.836 254.438 127.977 255.031 127.977C255.578 127.977 256.016 127.867 256.344 127.648C256.677 127.424 256.844 127.128 256.844 126.758ZM263.758 124.695C263.758 123.867 263.919 123.122 264.242 122.461C264.57 121.799 265.023 121.289 265.602 120.93C266.185 120.57 266.849 120.391 267.594 120.391C268.745 120.391 269.674 120.789 270.383 121.586C271.096 122.383 271.453 123.443 271.453 124.766V124.867C271.453 125.69 271.294 126.43 270.977 127.086C270.664 127.737 270.214 128.245 269.625 128.609C269.042 128.974 268.37 129.156 267.609 129.156C266.464 129.156 265.534 128.758 264.82 127.961C264.112 127.164 263.758 126.109 263.758 124.797V124.695ZM265.211 124.867C265.211 125.805 265.427 126.557 265.859 127.125C266.297 127.693 266.88 127.977 267.609 127.977C268.344 127.977 268.927 127.69 269.359 127.117C269.792 126.539 270.008 125.732 270.008 124.695C270.008 123.768 269.786 123.018 269.344 122.445C268.906 121.867 268.323 121.578 267.594 121.578C266.88 121.578 266.305 121.862 265.867 122.43C265.43 122.997 265.211 123.81 265.211 124.867ZM273.977 129V121.664H272.641V120.547H273.977V119.68C273.977 118.773 274.219 118.073 274.703 117.578C275.188 117.083 275.872 116.836 276.758 116.836C277.091 116.836 277.422 116.88 277.75 116.969L277.672 118.141C277.427 118.094 277.167 118.07 276.891 118.07C276.422 118.07 276.06 118.208 275.805 118.484C275.549 118.755 275.422 119.146 275.422 119.656V120.547H277.227V121.664H275.422V129H273.977ZM282.445 124.703C282.445 123.406 282.753 122.365 283.367 121.578C283.982 120.786 284.786 120.391 285.781 120.391C286.771 120.391 287.555 120.729 288.133 121.406V117H289.578V129H288.25L288.18 128.094C287.602 128.802 286.797 129.156 285.766 129.156C284.786 129.156 283.987 128.755 283.367 127.953C282.753 127.151 282.445 126.104 282.445 124.812V124.703ZM283.891 124.867C283.891 125.826 284.089 126.576 284.484 127.117C284.88 127.659 285.427 127.93 286.125 127.93C287.042 127.93 287.711 127.518 288.133 126.695V122.812C287.701 122.016 287.036 121.617 286.141 121.617C285.432 121.617 284.88 121.891 284.484 122.438C284.089 122.984 283.891 123.794 283.891 124.867ZM293.398 129H291.953V120.547H293.398V129ZM291.836 118.305C291.836 118.07 291.906 117.872 292.047 117.711C292.193 117.549 292.406 117.469 292.688 117.469C292.969 117.469 293.182 117.549 293.328 117.711C293.474 117.872 293.547 118.07 293.547 118.305C293.547 118.539 293.474 118.734 293.328 118.891C293.182 119.047 292.969 119.125 292.688 119.125C292.406 119.125 292.193 119.047 292.047 118.891C291.906 118.734 291.836 118.539 291.836 118.305ZM300.641 126.758C300.641 126.367 300.492 126.065 300.195 125.852C299.904 125.633 299.391 125.445 298.656 125.289C297.927 125.133 297.346 124.945 296.914 124.727C296.487 124.508 296.169 124.247 295.961 123.945C295.758 123.643 295.656 123.284 295.656 122.867C295.656 122.174 295.948 121.589 296.531 121.109C297.12 120.63 297.87 120.391 298.781 120.391C299.74 120.391 300.516 120.638 301.109 121.133C301.708 121.628 302.008 122.26 302.008 123.031H300.555C300.555 122.635 300.385 122.294 300.047 122.008C299.714 121.721 299.292 121.578 298.781 121.578C298.255 121.578 297.844 121.693 297.547 121.922C297.25 122.151 297.102 122.451 297.102 122.82C297.102 123.169 297.24 123.432 297.516 123.609C297.792 123.786 298.289 123.956 299.008 124.117C299.732 124.279 300.318 124.471 300.766 124.695C301.214 124.919 301.544 125.19 301.758 125.508C301.977 125.82 302.086 126.203 302.086 126.656C302.086 127.411 301.784 128.018 301.18 128.477C300.576 128.93 299.792 129.156 298.828 129.156C298.151 129.156 297.552 129.036 297.031 128.797C296.51 128.557 296.102 128.224 295.805 127.797C295.513 127.365 295.367 126.898 295.367 126.398H296.812C296.839 126.883 297.031 127.268 297.391 127.555C297.755 127.836 298.234 127.977 298.828 127.977C299.375 127.977 299.812 127.867 300.141 127.648C300.474 127.424 300.641 127.128 300.641 126.758ZM307.359 127.977C307.875 127.977 308.326 127.82 308.711 127.508C309.096 127.195 309.31 126.805 309.352 126.336H310.719C310.693 126.82 310.526 127.281 310.219 127.719C309.911 128.156 309.5 128.505 308.984 128.766C308.474 129.026 307.932 129.156 307.359 129.156C306.208 129.156 305.292 128.773 304.609 128.008C303.932 127.237 303.594 126.185 303.594 124.852V124.609C303.594 123.786 303.745 123.055 304.047 122.414C304.349 121.773 304.781 121.276 305.344 120.922C305.911 120.568 306.581 120.391 307.352 120.391C308.299 120.391 309.086 120.674 309.711 121.242C310.341 121.81 310.677 122.547 310.719 123.453H309.352C309.31 122.906 309.102 122.458 308.727 122.109C308.357 121.755 307.898 121.578 307.352 121.578C306.617 121.578 306.047 121.844 305.641 122.375C305.24 122.901 305.039 123.664 305.039 124.664V124.938C305.039 125.911 305.24 126.661 305.641 127.188C306.042 127.714 306.615 127.977 307.359 127.977ZM311.961 124.695C311.961 123.867 312.122 123.122 312.445 122.461C312.773 121.799 313.227 121.289 313.805 120.93C314.388 120.57 315.052 120.391 315.797 120.391C316.948 120.391 317.878 120.789 318.586 121.586C319.299 122.383 319.656 123.443 319.656 124.766V124.867C319.656 125.69 319.497 126.43 319.18 127.086C318.867 127.737 318.417 128.245 317.828 128.609C317.245 128.974 316.573 129.156 315.812 129.156C314.667 129.156 313.737 128.758 313.023 127.961C312.315 127.164 311.961 126.109 311.961 124.797V124.695ZM313.414 124.867C313.414 125.805 313.63 126.557 314.062 127.125C314.5 127.693 315.083 127.977 315.812 127.977C316.547 127.977 317.13 127.69 317.562 127.117C317.995 126.539 318.211 125.732 318.211 124.695C318.211 123.768 317.99 123.018 317.547 122.445C317.109 121.867 316.526 121.578 315.797 121.578C315.083 121.578 314.508 121.862 314.07 122.43C313.633 122.997 313.414 123.81 313.414 124.867ZM326.688 128.164C326.125 128.826 325.299 129.156 324.211 129.156C323.31 129.156 322.622 128.896 322.148 128.375C321.68 127.849 321.443 127.073 321.438 126.047V120.547H322.883V126.008C322.883 127.289 323.404 127.93 324.445 127.93C325.549 127.93 326.284 127.518 326.648 126.695V120.547H328.094V129H326.719L326.688 128.164ZM331.664 120.547L331.711 121.609C332.357 120.797 333.201 120.391 334.242 120.391C336.029 120.391 336.93 121.398 336.945 123.414V129H335.5V123.406C335.495 122.797 335.354 122.346 335.078 122.055C334.807 121.763 334.383 121.617 333.805 121.617C333.336 121.617 332.924 121.742 332.57 121.992C332.216 122.242 331.94 122.57 331.742 122.977V129H330.297V120.547H331.664ZM341.086 118.5V120.547H342.664V121.664H341.086V126.906C341.086 127.245 341.156 127.5 341.297 127.672C341.438 127.839 341.677 127.922 342.016 127.922C342.182 127.922 342.411 127.891 342.703 127.828V129C342.323 129.104 341.953 129.156 341.594 129.156C340.948 129.156 340.461 128.961 340.133 128.57C339.805 128.18 339.641 127.625 339.641 126.906V121.664H338.102V120.547H339.641V118.5H341.086ZM349.281 126.758C349.281 126.367 349.133 126.065 348.836 125.852C348.544 125.633 348.031 125.445 347.297 125.289C346.568 125.133 345.987 124.945 345.555 124.727C345.128 124.508 344.81 124.247 344.602 123.945C344.398 123.643 344.297 123.284 344.297 122.867C344.297 122.174 344.589 121.589 345.172 121.109C345.76 120.63 346.51 120.391 347.422 120.391C348.38 120.391 349.156 120.638 349.75 121.133C350.349 121.628 350.648 122.26 350.648 123.031H349.195C349.195 122.635 349.026 122.294 348.688 122.008C348.354 121.721 347.932 121.578 347.422 121.578C346.896 121.578 346.484 121.693 346.188 121.922C345.891 122.151 345.742 122.451 345.742 122.82C345.742 123.169 345.88 123.432 346.156 123.609C346.432 123.786 346.93 123.956 347.648 124.117C348.372 124.279 348.958 124.471 349.406 124.695C349.854 124.919 350.185 125.19 350.398 125.508C350.617 125.82 350.727 126.203 350.727 126.656C350.727 127.411 350.424 128.018 349.82 128.477C349.216 128.93 348.432 129.156 347.469 129.156C346.792 129.156 346.193 129.036 345.672 128.797C345.151 128.557 344.742 128.224 344.445 127.797C344.154 127.365 344.008 126.898 344.008 126.398H345.453C345.479 126.883 345.672 127.268 346.031 127.555C346.396 127.836 346.875 127.977 347.469 127.977C348.016 127.977 348.453 127.867 348.781 127.648C349.115 127.424 349.281 127.128 349.281 126.758ZM357.289 129V121.664H355.953V120.547H357.289V119.68C357.289 118.773 357.531 118.073 358.016 117.578C358.5 117.083 359.185 116.836 360.07 116.836C360.404 116.836 360.734 116.88 361.062 116.969L360.984 118.141C360.74 118.094 360.479 118.07 360.203 118.07C359.734 118.07 359.372 118.208 359.117 118.484C358.862 118.755 358.734 119.146 358.734 119.656V120.547H360.539V121.664H358.734V129H357.289ZM366.227 121.844C366.008 121.807 365.771 121.789 365.516 121.789C364.568 121.789 363.924 122.193 363.586 123V129H362.141V120.547H363.547L363.57 121.523C364.044 120.768 364.716 120.391 365.586 120.391C365.867 120.391 366.081 120.427 366.227 120.5V121.844ZM367.023 124.695C367.023 123.867 367.185 123.122 367.508 122.461C367.836 121.799 368.289 121.289 368.867 120.93C369.451 120.57 370.115 120.391 370.859 120.391C372.01 120.391 372.94 120.789 373.648 121.586C374.362 122.383 374.719 123.443 374.719 124.766V124.867C374.719 125.69 374.56 126.43 374.242 127.086C373.93 127.737 373.479 128.245 372.891 128.609C372.307 128.974 371.635 129.156 370.875 129.156C369.729 129.156 368.799 128.758 368.086 127.961C367.378 127.164 367.023 126.109 367.023 124.797V124.695ZM368.477 124.867C368.477 125.805 368.693 126.557 369.125 127.125C369.562 127.693 370.146 127.977 370.875 127.977C371.609 127.977 372.193 127.69 372.625 127.117C373.057 126.539 373.273 125.732 373.273 124.695C373.273 123.768 373.052 123.018 372.609 122.445C372.172 121.867 371.589 121.578 370.859 121.578C370.146 121.578 369.57 121.862 369.133 122.43C368.695 122.997 368.477 123.81 368.477 124.867ZM377.891 120.547L377.93 121.484C378.549 120.755 379.385 120.391 380.438 120.391C381.62 120.391 382.424 120.844 382.852 121.75C383.133 121.344 383.497 121.016 383.945 120.766C384.398 120.516 384.932 120.391 385.547 120.391C387.401 120.391 388.344 121.372 388.375 123.336V129H386.93V123.422C386.93 122.818 386.792 122.367 386.516 122.07C386.24 121.768 385.776 121.617 385.125 121.617C384.589 121.617 384.143 121.779 383.789 122.102C383.435 122.419 383.229 122.849 383.172 123.391V129H381.719V123.461C381.719 122.232 381.117 121.617 379.914 121.617C378.966 121.617 378.318 122.021 377.969 122.828V129H376.523V120.547H377.891ZM396.492 118.5V120.547H398.07V121.664H396.492V126.906C396.492 127.245 396.562 127.5 396.703 127.672C396.844 127.839 397.083 127.922 397.422 127.922C397.589 127.922 397.818 127.891 398.109 127.828V129C397.729 129.104 397.359 129.156 397 129.156C396.354 129.156 395.867 128.961 395.539 128.57C395.211 128.18 395.047 127.625 395.047 126.906V121.664H393.508V120.547H395.047V118.5H396.492ZM401.211 121.57C401.852 120.784 402.685 120.391 403.711 120.391C405.497 120.391 406.398 121.398 406.414 123.414V129H404.969V123.406C404.964 122.797 404.823 122.346 404.547 122.055C404.276 121.763 403.852 121.617 403.273 121.617C402.805 121.617 402.393 121.742 402.039 121.992C401.685 122.242 401.409 122.57 401.211 122.977V129H399.766V117H401.211V121.57ZM412.086 129.156C410.94 129.156 410.008 128.781 409.289 128.031C408.57 127.276 408.211 126.268 408.211 125.008V124.742C408.211 123.904 408.37 123.156 408.688 122.5C409.01 121.839 409.458 121.323 410.031 120.953C410.609 120.578 411.234 120.391 411.906 120.391C413.005 120.391 413.859 120.753 414.469 121.477C415.078 122.201 415.383 123.237 415.383 124.586V125.188H409.656C409.677 126.021 409.919 126.695 410.383 127.211C410.852 127.721 411.445 127.977 412.164 127.977C412.674 127.977 413.107 127.872 413.461 127.664C413.815 127.456 414.125 127.18 414.391 126.836L415.273 127.523C414.565 128.612 413.503 129.156 412.086 129.156ZM411.906 121.578C411.323 121.578 410.833 121.792 410.438 122.219C410.042 122.641 409.797 123.234 409.703 124H413.938V123.891C413.896 123.156 413.698 122.589 413.344 122.188C412.99 121.781 412.51 121.578 411.906 121.578ZM136.016 150.758C136.016 150.367 135.867 150.065 135.57 149.852C135.279 149.633 134.766 149.445 134.031 149.289C133.302 149.133 132.721 148.945 132.289 148.727C131.862 148.508 131.544 148.247 131.336 147.945C131.133 147.643 131.031 147.284 131.031 146.867C131.031 146.174 131.323 145.589 131.906 145.109C132.495 144.63 133.245 144.391 134.156 144.391C135.115 144.391 135.891 144.638 136.484 145.133C137.083 145.628 137.383 146.26 137.383 147.031H135.93C135.93 146.635 135.76 146.294 135.422 146.008C135.089 145.721 134.667 145.578 134.156 145.578C133.63 145.578 133.219 145.693 132.922 145.922C132.625 146.151 132.477 146.451 132.477 146.82C132.477 147.169 132.615 147.432 132.891 147.609C133.167 147.786 133.664 147.956 134.383 148.117C135.107 148.279 135.693 148.471 136.141 148.695C136.589 148.919 136.919 149.19 137.133 149.508C137.352 149.82 137.461 150.203 137.461 150.656C137.461 151.411 137.159 152.018 136.555 152.477C135.951 152.93 135.167 153.156 134.203 153.156C133.526 153.156 132.927 153.036 132.406 152.797C131.885 152.557 131.477 152.224 131.18 151.797C130.888 151.365 130.742 150.898 130.742 150.398H132.188C132.214 150.883 132.406 151.268 132.766 151.555C133.13 151.836 133.609 151.977 134.203 151.977C134.75 151.977 135.188 151.867 135.516 151.648C135.849 151.424 136.016 151.128 136.016 150.758ZM142.852 153.156C141.706 153.156 140.773 152.781 140.055 152.031C139.336 151.276 138.977 150.268 138.977 149.008V148.742C138.977 147.904 139.135 147.156 139.453 146.5C139.776 145.839 140.224 145.323 140.797 144.953C141.375 144.578 142 144.391 142.672 144.391C143.771 144.391 144.625 144.753 145.234 145.477C145.844 146.201 146.148 147.237 146.148 148.586V149.188H140.422C140.443 150.021 140.685 150.695 141.148 151.211C141.617 151.721 142.211 151.977 142.93 151.977C143.44 151.977 143.872 151.872 144.227 151.664C144.581 151.456 144.891 151.18 145.156 150.836L146.039 151.523C145.331 152.612 144.268 153.156 142.852 153.156ZM142.672 145.578C142.089 145.578 141.599 145.792 141.203 146.219C140.807 146.641 140.562 147.234 140.469 148H144.703V147.891C144.661 147.156 144.464 146.589 144.109 146.188C143.755 145.781 143.276 145.578 142.672 145.578ZM149.398 153H147.953V141H149.398V153ZM155.227 153.156C154.081 153.156 153.148 152.781 152.43 152.031C151.711 151.276 151.352 150.268 151.352 149.008V148.742C151.352 147.904 151.51 147.156 151.828 146.5C152.151 145.839 152.599 145.323 153.172 144.953C153.75 144.578 154.375 144.391 155.047 144.391C156.146 144.391 157 144.753 157.609 145.477C158.219 146.201 158.523 147.237 158.523 148.586V149.188H152.797C152.818 150.021 153.06 150.695 153.523 151.211C153.992 151.721 154.586 151.977 155.305 151.977C155.815 151.977 156.247 151.872 156.602 151.664C156.956 151.456 157.266 151.18 157.531 150.836L158.414 151.523C157.706 152.612 156.643 153.156 155.227 153.156ZM155.047 145.578C154.464 145.578 153.974 145.792 153.578 146.219C153.182 146.641 152.938 147.234 152.844 148H157.078V147.891C157.036 147.156 156.839 146.589 156.484 146.188C156.13 145.781 155.651 145.578 155.047 145.578ZM163.594 151.977C164.109 151.977 164.56 151.82 164.945 151.508C165.331 151.195 165.544 150.805 165.586 150.336H166.953C166.927 150.82 166.76 151.281 166.453 151.719C166.146 152.156 165.734 152.505 165.219 152.766C164.708 153.026 164.167 153.156 163.594 153.156C162.443 153.156 161.526 152.773 160.844 152.008C160.167 151.237 159.828 150.185 159.828 148.852V148.609C159.828 147.786 159.979 147.055 160.281 146.414C160.583 145.773 161.016 145.276 161.578 144.922C162.146 144.568 162.815 144.391 163.586 144.391C164.534 144.391 165.32 144.674 165.945 145.242C166.576 145.81 166.911 146.547 166.953 147.453H165.586C165.544 146.906 165.336 146.458 164.961 146.109C164.591 145.755 164.133 145.578 163.586 145.578C162.852 145.578 162.281 145.844 161.875 146.375C161.474 146.901 161.273 147.664 161.273 148.664V148.938C161.273 149.911 161.474 150.661 161.875 151.188C162.276 151.714 162.849 151.977 163.594 151.977ZM170.539 142.5V144.547H172.117V145.664H170.539V150.906C170.539 151.245 170.609 151.5 170.75 151.672C170.891 151.839 171.13 151.922 171.469 151.922C171.635 151.922 171.865 151.891 172.156 151.828V153C171.776 153.104 171.406 153.156 171.047 153.156C170.401 153.156 169.914 152.961 169.586 152.57C169.258 152.18 169.094 151.625 169.094 150.906V145.664H167.555V144.547H169.094V142.5H170.539ZM177.32 153.156C176.174 153.156 175.242 152.781 174.523 152.031C173.805 151.276 173.445 150.268 173.445 149.008V148.742C173.445 147.904 173.604 147.156 173.922 146.5C174.245 145.839 174.693 145.323 175.266 144.953C175.844 144.578 176.469 144.391 177.141 144.391C178.24 144.391 179.094 144.753 179.703 145.477C180.312 146.201 180.617 147.237 180.617 148.586V149.188H174.891C174.911 150.021 175.154 150.695 175.617 151.211C176.086 151.721 176.68 151.977 177.398 151.977C177.909 151.977 178.341 151.872 178.695 151.664C179.049 151.456 179.359 151.18 179.625 150.836L180.508 151.523C179.799 152.612 178.737 153.156 177.32 153.156ZM177.141 145.578C176.557 145.578 176.068 145.792 175.672 146.219C175.276 146.641 175.031 147.234 174.938 148H179.172V147.891C179.13 147.156 178.932 146.589 178.578 146.188C178.224 145.781 177.745 145.578 177.141 145.578ZM181.945 148.703C181.945 147.406 182.253 146.365 182.867 145.578C183.482 144.786 184.286 144.391 185.281 144.391C186.271 144.391 187.055 144.729 187.633 145.406V141H189.078V153H187.75L187.68 152.094C187.102 152.802 186.297 153.156 185.266 153.156C184.286 153.156 183.487 152.755 182.867 151.953C182.253 151.151 181.945 150.104 181.945 148.812V148.703ZM183.391 148.867C183.391 149.826 183.589 150.576 183.984 151.117C184.38 151.659 184.927 151.93 185.625 151.93C186.542 151.93 187.211 151.518 187.633 150.695V146.812C187.201 146.016 186.536 145.617 185.641 145.617C184.932 145.617 184.38 145.891 183.984 146.438C183.589 146.984 183.391 147.794 183.391 148.867ZM200.219 150.758C200.219 150.367 200.07 150.065 199.773 149.852C199.482 149.633 198.969 149.445 198.234 149.289C197.505 149.133 196.924 148.945 196.492 148.727C196.065 148.508 195.747 148.247 195.539 147.945C195.336 147.643 195.234 147.284 195.234 146.867C195.234 146.174 195.526 145.589 196.109 145.109C196.698 144.63 197.448 144.391 198.359 144.391C199.318 144.391 200.094 144.638 200.688 145.133C201.286 145.628 201.586 146.26 201.586 147.031H200.133C200.133 146.635 199.964 146.294 199.625 146.008C199.292 145.721 198.87 145.578 198.359 145.578C197.833 145.578 197.422 145.693 197.125 145.922C196.828 146.151 196.68 146.451 196.68 146.82C196.68 147.169 196.818 147.432 197.094 147.609C197.37 147.786 197.867 147.956 198.586 148.117C199.31 148.279 199.896 148.471 200.344 148.695C200.792 148.919 201.122 149.19 201.336 149.508C201.555 149.82 201.664 150.203 201.664 150.656C201.664 151.411 201.362 152.018 200.758 152.477C200.154 152.93 199.37 153.156 198.406 153.156C197.729 153.156 197.13 153.036 196.609 152.797C196.089 152.557 195.68 152.224 195.383 151.797C195.091 151.365 194.945 150.898 194.945 150.398H196.391C196.417 150.883 196.609 151.268 196.969 151.555C197.333 151.836 197.812 151.977 198.406 151.977C198.953 151.977 199.391 151.867 199.719 151.648C200.052 151.424 200.219 151.128 200.219 150.758ZM205.508 142.5V144.547H207.086V145.664H205.508V150.906C205.508 151.245 205.578 151.5 205.719 151.672C205.859 151.839 206.099 151.922 206.438 151.922C206.604 151.922 206.833 151.891 207.125 151.828V153C206.745 153.104 206.375 153.156 206.016 153.156C205.37 153.156 204.883 152.961 204.555 152.57C204.227 152.18 204.062 151.625 204.062 150.906V145.664H202.523V144.547H204.062V142.5H205.508ZM208.242 148.695C208.242 147.867 208.404 147.122 208.727 146.461C209.055 145.799 209.508 145.289 210.086 144.93C210.669 144.57 211.333 144.391 212.078 144.391C213.229 144.391 214.159 144.789 214.867 145.586C215.581 146.383 215.938 147.443 215.938 148.766V148.867C215.938 149.69 215.779 150.43 215.461 151.086C215.148 151.737 214.698 152.245 214.109 152.609C213.526 152.974 212.854 153.156 212.094 153.156C210.948 153.156 210.018 152.758 209.305 151.961C208.596 151.164 208.242 150.109 208.242 148.797V148.695ZM209.695 148.867C209.695 149.805 209.911 150.557 210.344 151.125C210.781 151.693 211.365 151.977 212.094 151.977C212.828 151.977 213.411 151.69 213.844 151.117C214.276 150.539 214.492 149.732 214.492 148.695C214.492 147.768 214.271 147.018 213.828 146.445C213.391 145.867 212.807 145.578 212.078 145.578C211.365 145.578 210.789 145.862 210.352 146.43C209.914 146.997 209.695 147.81 209.695 148.867ZM221.836 145.844C221.617 145.807 221.38 145.789 221.125 145.789C220.177 145.789 219.534 146.193 219.195 147V153H217.75V144.547H219.156L219.18 145.523C219.654 144.768 220.326 144.391 221.195 144.391C221.477 144.391 221.69 144.427 221.836 144.5V145.844ZM226.523 153.156C225.378 153.156 224.445 152.781 223.727 152.031C223.008 151.276 222.648 150.268 222.648 149.008V148.742C222.648 147.904 222.807 147.156 223.125 146.5C223.448 145.839 223.896 145.323 224.469 144.953C225.047 144.578 225.672 144.391 226.344 144.391C227.443 144.391 228.297 144.753 228.906 145.477C229.516 146.201 229.82 147.237 229.82 148.586V149.188H224.094C224.115 150.021 224.357 150.695 224.82 151.211C225.289 151.721 225.883 151.977 226.602 151.977C227.112 151.977 227.544 151.872 227.898 151.664C228.253 151.456 228.562 151.18 228.828 150.836L229.711 151.523C229.003 152.612 227.94 153.156 226.523 153.156ZM226.344 145.578C225.76 145.578 225.271 145.792 224.875 146.219C224.479 146.641 224.234 147.234 224.141 148H228.375V147.891C228.333 147.156 228.135 146.589 227.781 146.188C227.427 145.781 226.948 145.578 226.344 145.578ZM236.422 150.758C236.422 150.367 236.273 150.065 235.977 149.852C235.685 149.633 235.172 149.445 234.438 149.289C233.708 149.133 233.128 148.945 232.695 148.727C232.268 148.508 231.951 148.247 231.742 147.945C231.539 147.643 231.438 147.284 231.438 146.867C231.438 146.174 231.729 145.589 232.312 145.109C232.901 144.63 233.651 144.391 234.562 144.391C235.521 144.391 236.297 144.638 236.891 145.133C237.49 145.628 237.789 146.26 237.789 147.031H236.336C236.336 146.635 236.167 146.294 235.828 146.008C235.495 145.721 235.073 145.578 234.562 145.578C234.036 145.578 233.625 145.693 233.328 145.922C233.031 146.151 232.883 146.451 232.883 146.82C232.883 147.169 233.021 147.432 233.297 147.609C233.573 147.786 234.07 147.956 234.789 148.117C235.513 148.279 236.099 148.471 236.547 148.695C236.995 148.919 237.326 149.19 237.539 149.508C237.758 149.82 237.867 150.203 237.867 150.656C237.867 151.411 237.565 152.018 236.961 152.477C236.357 152.93 235.573 153.156 234.609 153.156C233.932 153.156 233.333 153.036 232.812 152.797C232.292 152.557 231.883 152.224 231.586 151.797C231.294 151.365 231.148 150.898 231.148 150.398H232.594C232.62 150.883 232.812 151.268 233.172 151.555C233.536 151.836 234.016 151.977 234.609 151.977C235.156 151.977 235.594 151.867 235.922 151.648C236.255 151.424 236.422 151.128 236.422 150.758ZM245.086 144.547L245.133 145.609C245.779 144.797 246.622 144.391 247.664 144.391C249.451 144.391 250.352 145.398 250.367 147.414V153H248.922V147.406C248.917 146.797 248.776 146.346 248.5 146.055C248.229 145.763 247.805 145.617 247.227 145.617C246.758 145.617 246.346 145.742 245.992 145.992C245.638 146.242 245.362 146.57 245.164 146.977V153H243.719V144.547H245.086ZM256.055 153.156C254.909 153.156 253.977 152.781 253.258 152.031C252.539 151.276 252.18 150.268 252.18 149.008V148.742C252.18 147.904 252.339 147.156 252.656 146.5C252.979 145.839 253.427 145.323 254 144.953C254.578 144.578 255.203 144.391 255.875 144.391C256.974 144.391 257.828 144.753 258.438 145.477C259.047 146.201 259.352 147.237 259.352 148.586V149.188H253.625C253.646 150.021 253.888 150.695 254.352 151.211C254.82 151.721 255.414 151.977 256.133 151.977C256.643 151.977 257.076 151.872 257.43 151.664C257.784 151.456 258.094 151.18 258.359 150.836L259.242 151.523C258.534 152.612 257.471 153.156 256.055 153.156ZM255.875 145.578C255.292 145.578 254.802 145.792 254.406 146.219C254.01 146.641 253.766 147.234 253.672 148H257.906V147.891C257.865 147.156 257.667 146.589 257.312 146.188C256.958 145.781 256.479 145.578 255.875 145.578ZM266.25 153C266.167 152.833 266.099 152.536 266.047 152.109C265.375 152.807 264.573 153.156 263.641 153.156C262.807 153.156 262.122 152.922 261.586 152.453C261.055 151.979 260.789 151.38 260.789 150.656C260.789 149.776 261.122 149.094 261.789 148.609C262.461 148.12 263.404 147.875 264.617 147.875H266.023V147.211C266.023 146.706 265.872 146.305 265.57 146.008C265.268 145.706 264.823 145.555 264.234 145.555C263.719 145.555 263.286 145.685 262.938 145.945C262.589 146.206 262.414 146.521 262.414 146.891H260.961C260.961 146.469 261.109 146.062 261.406 145.672C261.708 145.276 262.115 144.964 262.625 144.734C263.141 144.505 263.706 144.391 264.32 144.391C265.294 144.391 266.057 144.635 266.609 145.125C267.161 145.609 267.448 146.279 267.469 147.133V151.023C267.469 151.799 267.568 152.417 267.766 152.875V153H266.25ZM263.852 151.898C264.305 151.898 264.734 151.781 265.141 151.547C265.547 151.312 265.841 151.008 266.023 150.633V148.898H264.891C263.12 148.898 262.234 149.417 262.234 150.453C262.234 150.906 262.385 151.26 262.688 151.516C262.99 151.771 263.378 151.898 263.852 151.898ZM273.82 145.844C273.602 145.807 273.365 145.789 273.109 145.789C272.161 145.789 271.518 146.193 271.18 147V153H269.734V144.547H271.141L271.164 145.523C271.638 144.768 272.31 144.391 273.18 144.391C273.461 144.391 273.674 144.427 273.82 144.5V145.844ZM281.891 150.883L283.859 144.547H285.406L282.008 154.305C281.482 155.711 280.646 156.414 279.5 156.414L279.227 156.391L278.688 156.289V155.117L279.078 155.148C279.568 155.148 279.948 155.049 280.219 154.852C280.495 154.654 280.721 154.292 280.898 153.766L281.219 152.906L278.203 144.547H279.781L281.891 150.883ZM286.195 148.695C286.195 147.867 286.357 147.122 286.68 146.461C287.008 145.799 287.461 145.289 288.039 144.93C288.622 144.57 289.286 144.391 290.031 144.391C291.182 144.391 292.112 144.789 292.82 145.586C293.534 146.383 293.891 147.443 293.891 148.766V148.867C293.891 149.69 293.732 150.43 293.414 151.086C293.102 151.737 292.651 152.245 292.062 152.609C291.479 152.974 290.807 153.156 290.047 153.156C288.901 153.156 287.971 152.758 287.258 151.961C286.549 151.164 286.195 150.109 286.195 148.797V148.695ZM287.648 148.867C287.648 149.805 287.865 150.557 288.297 151.125C288.734 151.693 289.318 151.977 290.047 151.977C290.781 151.977 291.365 151.69 291.797 151.117C292.229 150.539 292.445 149.732 292.445 148.695C292.445 147.768 292.224 147.018 291.781 146.445C291.344 145.867 290.76 145.578 290.031 145.578C289.318 145.578 288.742 145.862 288.305 146.43C287.867 146.997 287.648 147.81 287.648 148.867ZM300.922 152.164C300.359 152.826 299.534 153.156 298.445 153.156C297.544 153.156 296.857 152.896 296.383 152.375C295.914 151.849 295.677 151.073 295.672 150.047V144.547H297.117V150.008C297.117 151.289 297.638 151.93 298.68 151.93C299.784 151.93 300.518 151.518 300.883 150.695V144.547H302.328V153H300.953L300.922 152.164ZM304.562 152.242C304.562 151.992 304.635 151.784 304.781 151.617C304.932 151.451 305.156 151.367 305.453 151.367C305.75 151.367 305.974 151.451 306.125 151.617C306.281 151.784 306.359 151.992 306.359 152.242C306.359 152.482 306.281 152.682 306.125 152.844C305.974 153.005 305.75 153.086 305.453 153.086C305.156 153.086 304.932 153.005 304.781 152.844C304.635 152.682 304.562 152.482 304.562 152.242Z" fill="#576D81"/>
<path d="M142.28 75.2974H135.249V80.0581H143.501V83H131.587V65.2266H143.477V68.1929H135.249V72.4287H142.28V75.2974ZM150.647 73.7349L152.868 69.792H156.64L152.881 76.2617L156.799 83H153.015L150.659 78.8496L148.315 83H144.519L148.437 76.2617L144.69 69.792H148.474L150.647 73.7349ZM163.786 80.3999C164.437 80.3999 164.966 80.2209 165.373 79.8628C165.78 79.5047 165.992 79.0286 166.008 78.4346H169.316C169.308 79.3298 169.064 80.1517 168.584 80.9004C168.103 81.641 167.444 82.2188 166.606 82.6338C165.776 83.0407 164.856 83.2441 163.847 83.2441C161.959 83.2441 160.47 82.646 159.379 81.4497C158.289 80.2453 157.744 78.5851 157.744 76.4692V76.2373C157.744 74.2028 158.285 72.5793 159.367 71.3667C160.45 70.1541 161.935 69.5479 163.823 69.5479C165.475 69.5479 166.797 70.0199 167.79 70.9639C168.791 71.8997 169.3 73.1489 169.316 74.7114H166.008C165.992 74.0278 165.78 73.4744 165.373 73.0513C164.966 72.62 164.429 72.4043 163.762 72.4043C162.94 72.4043 162.317 72.7054 161.894 73.3076C161.479 73.9017 161.272 74.8701 161.272 76.2129V76.5791C161.272 77.9382 161.479 78.9147 161.894 79.5088C162.309 80.1029 162.94 80.3999 163.786 80.3999ZM175.253 83H171.713V64.25H175.253V83ZM186.281 81.6572C185.41 82.7152 184.206 83.2441 182.668 83.2441C181.252 83.2441 180.169 82.8372 179.421 82.0234C178.68 81.2096 178.302 80.0174 178.285 78.4468V69.792H181.813V78.3247C181.813 79.7 182.44 80.3877 183.693 80.3877C184.889 80.3877 185.711 79.9727 186.159 79.1426V69.792H189.699V83H186.379L186.281 81.6572ZM199.713 79.3501C199.713 78.9188 199.498 78.5811 199.066 78.3369C198.643 78.0846 197.96 77.8608 197.016 77.6655C193.874 77.0063 192.304 75.6717 192.304 73.6616C192.304 72.4897 192.788 71.5132 193.756 70.7319C194.733 69.9425 196.007 69.5479 197.577 69.5479C199.254 69.5479 200.592 69.9425 201.593 70.7319C202.602 71.5213 203.107 72.5467 203.107 73.8081H199.579C199.579 73.3035 199.416 72.8885 199.091 72.563C198.765 72.2293 198.257 72.0625 197.565 72.0625C196.971 72.0625 196.511 72.1968 196.186 72.4653C195.86 72.7339 195.697 73.0757 195.697 73.4907C195.697 73.8813 195.88 74.1987 196.247 74.4429C196.621 74.6789 197.248 74.8864 198.126 75.0654C199.005 75.2363 199.746 75.4316 200.348 75.6514C202.212 76.335 203.144 77.519 203.144 79.2036C203.144 80.408 202.627 81.3846 201.593 82.1333C200.56 82.8739 199.225 83.2441 197.589 83.2441C196.483 83.2441 195.498 83.0488 194.635 82.6582C193.781 82.2594 193.109 81.7183 192.621 81.0347C192.133 80.3429 191.889 79.5983 191.889 78.8008H195.233C195.266 79.4274 195.498 79.9076 195.929 80.2412C196.361 80.5749 196.938 80.7417 197.663 80.7417C198.338 80.7417 198.847 80.6156 199.188 80.3633C199.538 80.1029 199.713 79.7651 199.713 79.3501ZM209.349 83H205.809V69.792H209.349V83ZM205.602 66.374C205.602 65.8451 205.777 65.4097 206.127 65.0679C206.485 64.7261 206.969 64.5552 207.579 64.5552C208.182 64.5552 208.662 64.7261 209.02 65.0679C209.378 65.4097 209.557 65.8451 209.557 66.374C209.557 66.9111 209.374 67.3506 209.008 67.6924C208.65 68.0342 208.173 68.2051 207.579 68.2051C206.985 68.2051 206.505 68.0342 206.139 67.6924C205.781 67.3506 205.602 66.9111 205.602 66.374ZM217.411 78.6909L219.864 69.792H223.551L219.095 83H215.726L211.271 69.792H214.957L217.411 78.6909ZM231.222 83.2441C229.285 83.2441 227.706 82.6501 226.485 81.4619C225.273 80.2738 224.666 78.6909 224.666 76.7134V76.3716C224.666 75.0451 224.923 73.861 225.435 72.8193C225.948 71.7695 226.672 70.9639 227.608 70.4023C228.552 69.8327 229.627 69.5479 230.831 69.5479C232.638 69.5479 234.058 70.1175 235.091 71.2568C236.133 72.3962 236.654 74.0116 236.654 76.103V77.5435H228.243C228.357 78.4061 228.699 79.0978 229.268 79.6187C229.846 80.1395 230.575 80.3999 231.454 80.3999C232.813 80.3999 233.875 79.9076 234.64 78.9229L236.373 80.8638C235.844 81.6125 235.128 82.1984 234.225 82.6216C233.321 83.0366 232.32 83.2441 231.222 83.2441ZM230.819 72.4043C230.119 72.4043 229.549 72.6403 229.11 73.1123C228.678 73.5843 228.402 74.2598 228.28 75.1387H233.187V74.8579C233.171 74.0767 232.959 73.4744 232.552 73.0513C232.145 72.62 231.567 72.4043 230.819 72.4043ZM254.742 78.3369C254.742 77.6452 254.498 77.1162 254.009 76.75C253.521 76.3757 252.642 75.985 251.373 75.5781C250.103 75.1631 249.098 74.7562 248.357 74.3574C246.339 73.2669 245.33 71.798 245.33 69.9507C245.33 68.9904 245.599 68.1359 246.136 67.3872C246.681 66.6304 247.458 66.0404 248.467 65.6172C249.485 65.194 250.624 64.9824 251.885 64.9824C253.155 64.9824 254.286 65.2144 255.279 65.6782C256.272 66.134 257.041 66.7809 257.586 67.6191C258.139 68.4574 258.416 69.4095 258.416 70.4756H254.754C254.754 69.6618 254.498 69.0311 253.985 68.5835C253.472 68.1278 252.752 67.8999 251.824 67.8999C250.929 67.8999 250.233 68.0911 249.737 68.4736C249.24 68.848 248.992 69.3444 248.992 69.9629C248.992 70.5407 249.281 71.0249 249.859 71.4155C250.445 71.8062 251.303 72.1724 252.435 72.5142C254.518 73.1408 256.036 73.918 256.988 74.8457C257.94 75.7734 258.416 76.929 258.416 78.3125C258.416 79.8506 257.834 81.0591 256.67 81.938C255.507 82.8088 253.94 83.2441 251.971 83.2441C250.604 83.2441 249.358 82.9959 248.235 82.4995C247.112 81.995 246.254 81.3073 245.66 80.4365C245.074 79.5658 244.781 78.5566 244.781 77.4092H248.455C248.455 79.3704 249.627 80.3511 251.971 80.3511C252.841 80.3511 253.521 80.1761 254.009 79.8262C254.498 79.4681 254.742 78.9717 254.742 78.3369ZM265.098 66.5449V69.792H267.356V72.3799H265.098V78.9717C265.098 79.46 265.192 79.8099 265.379 80.0215C265.566 80.2331 265.924 80.3389 266.453 80.3389C266.844 80.3389 267.189 80.3104 267.491 80.2534V82.9268C266.799 83.1383 266.087 83.2441 265.354 83.2441C262.88 83.2441 261.619 81.995 261.57 79.4966V72.3799H259.641V69.792H261.57V66.5449H265.098ZM268.606 76.2739C268.606 74.9637 268.858 73.7959 269.363 72.7705C269.867 71.7451 270.592 70.9517 271.536 70.3901C272.488 69.8286 273.591 69.5479 274.844 69.5479C276.626 69.5479 278.079 70.0931 279.202 71.1836C280.333 72.2741 280.964 73.7552 281.094 75.627L281.118 76.5303C281.118 78.5566 280.553 80.1842 279.421 81.4131C278.29 82.6338 276.773 83.2441 274.868 83.2441C272.964 83.2441 271.442 82.6338 270.303 81.4131C269.172 80.1924 268.606 78.5322 268.606 76.4326V76.2739ZM272.134 76.5303C272.134 77.7835 272.37 78.7438 272.842 79.4111C273.314 80.0703 273.989 80.3999 274.868 80.3999C275.723 80.3999 276.39 80.0744 276.87 79.4233C277.35 78.7642 277.59 77.7144 277.59 76.2739C277.59 75.0451 277.35 74.0929 276.87 73.4175C276.39 72.742 275.715 72.4043 274.844 72.4043C273.981 72.4043 273.314 72.742 272.842 73.4175C272.37 74.0848 272.134 75.1224 272.134 76.5303ZM290.913 73.1001C290.433 73.035 290.01 73.0024 289.643 73.0024C288.309 73.0024 287.434 73.4541 287.019 74.3574V83H283.491V69.792H286.824L286.921 71.3667C287.629 70.1541 288.61 69.5479 289.863 69.5479C290.254 69.5479 290.62 69.6007 290.962 69.7065L290.913 73.1001ZM298.657 83.2441C296.72 83.2441 295.141 82.6501 293.921 81.4619C292.708 80.2738 292.102 78.6909 292.102 76.7134V76.3716C292.102 75.0451 292.358 73.861 292.871 72.8193C293.383 71.7695 294.108 70.9639 295.044 70.4023C295.988 69.8327 297.062 69.5479 298.266 69.5479C300.073 69.5479 301.493 70.1175 302.527 71.2568C303.568 72.3962 304.089 74.0116 304.089 76.103V77.5435H295.678C295.792 78.4061 296.134 79.0978 296.704 79.6187C297.282 80.1395 298.01 80.3999 298.889 80.3999C300.248 80.3999 301.31 79.9076 302.075 78.9229L303.808 80.8638C303.279 81.6125 302.563 82.1984 301.66 82.6216C300.757 83.0366 299.756 83.2441 298.657 83.2441ZM298.254 72.4043C297.554 72.4043 296.985 72.6403 296.545 73.1123C296.114 73.5843 295.837 74.2598 295.715 75.1387H300.622V74.8579C300.606 74.0767 300.394 73.4744 299.988 73.0513C299.581 72.62 299.003 72.4043 298.254 72.4043ZM312.961 83V65.2266H318.429C319.992 65.2266 321.388 65.5806 322.617 66.2886C323.853 66.9884 324.818 67.9894 325.51 69.2915C326.201 70.5854 326.547 72.0584 326.547 73.7104V74.5283C326.547 76.1803 326.205 77.6493 325.522 78.9351C324.846 80.2209 323.89 81.2178 322.653 81.9258C321.416 82.6338 320.02 82.9919 318.466 83H312.961ZM316.623 68.1929V80.0581H318.393C319.825 80.0581 320.92 79.5902 321.677 78.6543C322.433 77.7184 322.82 76.3797 322.836 74.6382V73.6982C322.836 71.8916 322.462 70.5244 321.713 69.5967C320.964 68.6608 319.87 68.1929 318.429 68.1929H316.623ZM332.912 83H329.372V69.792H332.912V83ZM329.164 66.374C329.164 65.8451 329.339 65.4097 329.689 65.0679C330.047 64.7261 330.531 64.5552 331.142 64.5552C331.744 64.5552 332.224 64.7261 332.582 65.0679C332.94 65.4097 333.119 65.8451 333.119 66.374C333.119 66.9111 332.936 67.3506 332.57 67.6924C332.212 68.0342 331.736 68.2051 331.142 68.2051C330.548 68.2051 330.067 68.0342 329.701 67.6924C329.343 67.3506 329.164 66.9111 329.164 66.374ZM343.183 79.3501C343.183 78.9188 342.967 78.5811 342.536 78.3369C342.112 78.0846 341.429 77.8608 340.485 77.6655C337.343 77.0063 335.773 75.6717 335.773 73.6616C335.773 72.4897 336.257 71.5132 337.225 70.7319C338.202 69.9425 339.476 69.5479 341.046 69.5479C342.723 69.5479 344.061 69.9425 345.062 70.7319C346.072 71.5213 346.576 72.5467 346.576 73.8081H343.048C343.048 73.3035 342.885 72.8885 342.56 72.563C342.234 72.2293 341.726 72.0625 341.034 72.0625C340.44 72.0625 339.98 72.1968 339.655 72.4653C339.329 72.7339 339.166 73.0757 339.166 73.4907C339.166 73.8813 339.35 74.1987 339.716 74.4429C340.09 74.6789 340.717 74.8864 341.596 75.0654C342.475 75.2363 343.215 75.4316 343.817 75.6514C345.681 76.335 346.613 77.519 346.613 79.2036C346.613 80.408 346.096 81.3846 345.062 82.1333C344.029 82.8739 342.694 83.2441 341.059 83.2441C339.952 83.2441 338.967 83.0488 338.104 82.6582C337.25 82.2594 336.579 81.7183 336.09 81.0347C335.602 80.3429 335.358 79.5983 335.358 78.8008H338.703C338.735 79.4274 338.967 79.9076 339.398 80.2412C339.83 80.5749 340.407 80.7417 341.132 80.7417C341.807 80.7417 342.316 80.6156 342.658 80.3633C343.008 80.1029 343.183 79.7651 343.183 79.3501ZM354.589 80.3999C355.24 80.3999 355.769 80.2209 356.175 79.8628C356.582 79.5047 356.794 79.0286 356.81 78.4346H360.118C360.11 79.3298 359.866 80.1517 359.386 80.9004C358.906 81.641 358.247 82.2188 357.408 82.6338C356.578 83.0407 355.659 83.2441 354.65 83.2441C352.762 83.2441 351.272 82.646 350.182 81.4497C349.091 80.2453 348.546 78.5851 348.546 76.4692V76.2373C348.546 74.2028 349.087 72.5793 350.17 71.3667C351.252 70.1541 352.737 69.5479 354.625 69.5479C356.277 69.5479 357.6 70.0199 358.592 70.9639C359.593 71.8997 360.102 73.1489 360.118 74.7114H356.81C356.794 74.0278 356.582 73.4744 356.175 73.0513C355.769 72.62 355.231 72.4043 354.564 72.4043C353.742 72.4043 353.12 72.7054 352.696 73.3076C352.281 73.9017 352.074 74.8701 352.074 76.2129V76.5791C352.074 77.9382 352.281 78.9147 352.696 79.5088C353.112 80.1029 353.742 80.3999 354.589 80.3999ZM361.783 76.2739C361.783 74.9637 362.035 73.7959 362.54 72.7705C363.045 71.7451 363.769 70.9517 364.713 70.3901C365.665 69.8286 366.768 69.5479 368.021 69.5479C369.803 69.5479 371.256 70.0931 372.379 71.1836C373.51 72.2741 374.141 73.7552 374.271 75.627L374.295 76.5303C374.295 78.5566 373.73 80.1842 372.599 81.4131C371.467 82.6338 369.95 83.2441 368.045 83.2441C366.141 83.2441 364.619 82.6338 363.48 81.4131C362.349 80.1924 361.783 78.5322 361.783 76.4326V76.2739ZM365.311 76.5303C365.311 77.7835 365.547 78.7438 366.019 79.4111C366.491 80.0703 367.167 80.3999 368.045 80.3999C368.9 80.3999 369.567 80.0744 370.047 79.4233C370.528 78.7642 370.768 77.7144 370.768 76.2739C370.768 75.0451 370.528 74.0929 370.047 73.4175C369.567 72.742 368.892 72.4043 368.021 72.4043C367.158 72.4043 366.491 72.742 366.019 73.4175C365.547 74.0848 365.311 75.1224 365.311 76.5303ZM384.578 81.6572C383.708 82.7152 382.503 83.2441 380.965 83.2441C379.549 83.2441 378.467 82.8372 377.718 82.0234C376.978 81.2096 376.599 80.0174 376.583 78.4468V69.792H380.111V78.3247C380.111 79.7 380.737 80.3877 381.991 80.3877C383.187 80.3877 384.009 79.9727 384.456 79.1426V69.792H387.996V83H384.676L384.578 81.6572ZM394.105 69.792L394.214 71.3179C395.158 70.1379 396.424 69.5479 398.011 69.5479C399.411 69.5479 400.452 69.9588 401.136 70.7808C401.819 71.6027 402.169 72.8315 402.186 74.4673V83H398.658V74.5527C398.658 73.804 398.495 73.2629 398.17 72.9292C397.844 72.5874 397.303 72.4165 396.546 72.4165C395.553 72.4165 394.809 72.8397 394.312 73.686V83H390.784V69.792H394.105ZM409.295 66.5449V69.792H411.553V72.3799H409.295V78.9717C409.295 79.46 409.388 79.8099 409.576 80.0215C409.763 80.2331 410.121 80.3389 410.65 80.3389C411.04 80.3389 411.386 80.3104 411.687 80.2534V82.9268C410.996 83.1383 410.284 83.2441 409.551 83.2441C407.077 83.2441 405.816 81.995 405.767 79.4966V72.3799H403.838V69.792H405.767V66.5449H409.295ZM420.872 79.3501C420.872 78.9188 420.656 78.5811 420.225 78.3369C419.802 78.0846 419.118 77.8608 418.174 77.6655C415.033 77.0063 413.462 75.6717 413.462 73.6616C413.462 72.4897 413.946 71.5132 414.915 70.7319C415.891 69.9425 417.165 69.5479 418.736 69.5479C420.412 69.5479 421.751 69.9425 422.752 70.7319C423.761 71.5213 424.265 72.5467 424.265 73.8081H420.737C420.737 73.3035 420.575 72.8885 420.249 72.563C419.924 72.2293 419.415 72.0625 418.723 72.0625C418.129 72.0625 417.669 72.1968 417.344 72.4653C417.018 72.7339 416.856 73.0757 416.856 73.4907C416.856 73.8813 417.039 74.1987 417.405 74.4429C417.779 74.6789 418.406 74.8864 419.285 75.0654C420.164 75.2363 420.904 75.4316 421.507 75.6514C423.37 76.335 424.302 77.519 424.302 79.2036C424.302 80.408 423.785 81.3846 422.752 82.1333C421.718 82.8739 420.383 83.2441 418.748 83.2441C417.641 83.2441 416.656 83.0488 415.794 82.6582C414.939 82.2594 414.268 81.7183 413.779 81.0347C413.291 80.3429 413.047 79.5983 413.047 78.8008H416.392C416.424 79.4274 416.656 79.9076 417.088 80.2412C417.519 80.5749 418.097 80.7417 418.821 80.7417C419.496 80.7417 420.005 80.6156 420.347 80.3633C420.697 80.1029 420.872 79.7651 420.872 79.3501Z" fill="#0F2336"/>
<path d="M57 57C57 52.5817 60.5817 49 65 49H99C103.418 49 107 52.5817 107 57V91C107 95.4183 103.418 99 99 99H65C60.5817 99 57 95.4183 57 91V57Z" fill="#F6F7F8"/>
<g clip-path="url(#clip0_1_156)">
<path d="M74.4 59H90.6C94.2 59 97.1 61.9 97.1 65.5V82.5C97.1 86.1 94.2 89 90.6 89H74.4C70.8 89 67.9 86.1 67.9 82.5V65.5C67.9 61.9 70.8 59 74.4 59Z" stroke="#FF5678" stroke-width="1.3"/>
<path d="M79 75.2001C80.5 75.2001 81.5 74.2001 81.5 72.8001V70.5001C81.5 69.1001 80.5 68.1001 79 68.1001C77.5 68.1001 76.5 69.1001 76.5 70.5001V72.8001C76.5 74.2001 77.6 75.2001 79 75.2001ZM79.9 80.5001L87.4 69.8001L85.9 68.7001L78.4 79.4001L79.9 80.5001ZM79 73.6001C78.6 73.6001 78.2 73.3001 78.2 72.8001V70.6001C78.1 69.6001 79.8 69.6001 79.7 70.6001V72.8001C79.8 73.2001 79.5 73.6001 79 73.6001ZM86.7 81.2001C88.2 81.2001 89.3 80.2001 89.3 78.8001V76.5001C89.3 75.1001 88.2 74.1001 86.7 74.1001C85.2 74.1001 84.2 75.1001 84.2 76.5001V78.8001C84.2 80.2001 85.3 81.2001 86.7 81.2001ZM86.8 79.6001C86.3 79.6001 86 79.2001 86 78.8001V76.6001C86 76.2001 86.3 75.8001 86.8 75.8001C87.3 75.8001 87.6 76.1001 87.6 76.6001V78.8001C87.5 79.3001 87.2 79.6001 86.8 79.6001Z" fill="#FF5678"/>
</g>
<defs>
<filter id="filter0_d_1_156" x="0" y="0" width="519" height="243" filterUnits="userSpaceOnUse" color-interpolation-filters="sRGB">
<feFlood flood-opacity="0" result="BackgroundImageFix"/>
<feColorMatrix in="SourceAlpha" type="matrix" values="0 0 0 0 0 0 0 0 0 0 0 0 0 0 0 0 0 0 127 0" result="hardAlpha"/>
<feOffset dy="8"/>
<feGaussianBlur stdDeviation="16"/>
<feColorMatrix type="matrix" values="0 0 0 0 0.0588235 0 0 0 0 0.137255 0 0 0 0 0.211765 0 0 0 0.06 0"/>
<feBlend mode="normal" in2="BackgroundImageFix" result="effect1_dropShadow_1_156"/>
<feBlend mode="normal" in="SourceGraphic" in2="effect1_dropShadow_1_156" result="shape"/>
</filter>
<clipPath id="clip0_1_156">
<rect width="31" height="32" fill="white" transform="translate(67 58)"/>
</clipPath>
</defs>
</svg>
