<svg width="519" height="243" viewBox="0 0 519 243" fill="none" xmlns="http://www.w3.org/2000/svg">
<g filter="url(#filter0_d_1_145)">
<path d="M32 32C32 27.5817 35.5817 24 40 24H479C483.418 24 487 27.5817 487 32V195C487 199.418 483.418 203 479 203H40C35.5817 203 32 199.418 32 195V32Z" fill="white"/>
</g>
<path d="M138.398 129H130.945V127.961L134.883 123.586C135.466 122.924 135.867 122.388 136.086 121.977C136.31 121.56 136.422 121.13 136.422 120.688C136.422 120.094 136.242 119.607 135.883 119.227C135.523 118.846 135.044 118.656 134.445 118.656C133.727 118.656 133.167 118.862 132.766 119.273C132.37 119.68 132.172 120.247 132.172 120.977H130.727C130.727 119.93 131.062 119.083 131.734 118.438C132.411 117.792 133.315 117.469 134.445 117.469C135.503 117.469 136.339 117.747 136.953 118.305C137.568 118.857 137.875 119.594 137.875 120.516C137.875 121.635 137.161 122.969 135.734 124.516L132.688 127.82H138.398V129ZM151.82 118.859H148.164V129H146.672V118.859H143.023V117.625H151.82V118.859ZM156.008 129.156C154.862 129.156 153.93 128.781 153.211 128.031C152.492 127.276 152.133 126.268 152.133 125.008V124.742C152.133 123.904 152.292 123.156 152.609 122.5C152.932 121.839 153.38 121.323 153.953 120.953C154.531 120.578 155.156 120.391 155.828 120.391C156.927 120.391 157.781 120.753 158.391 121.477C159 122.201 159.305 123.237 159.305 124.586V125.188H153.578C153.599 126.021 153.841 126.695 154.305 127.211C154.773 127.721 155.367 127.977 156.086 127.977C156.596 127.977 157.029 127.872 157.383 127.664C157.737 127.456 158.047 127.18 158.312 126.836L159.195 127.523C158.487 128.612 157.424 129.156 156.008 129.156ZM155.828 121.578C155.245 121.578 154.755 121.792 154.359 122.219C153.964 122.641 153.719 123.234 153.625 124H157.859V123.891C157.818 123.156 157.62 122.589 157.266 122.188C156.911 121.781 156.432 121.578 155.828 121.578ZM166.203 129C166.12 128.833 166.052 128.536 166 128.109C165.328 128.807 164.526 129.156 163.594 129.156C162.76 129.156 162.076 128.922 161.539 128.453C161.008 127.979 160.742 127.38 160.742 126.656C160.742 125.776 161.076 125.094 161.742 124.609C162.414 124.12 163.357 123.875 164.57 123.875H165.977V123.211C165.977 122.706 165.826 122.305 165.523 122.008C165.221 121.706 164.776 121.555 164.188 121.555C163.672 121.555 163.24 121.685 162.891 121.945C162.542 122.206 162.367 122.521 162.367 122.891H160.914C160.914 122.469 161.062 122.062 161.359 121.672C161.661 121.276 162.068 120.964 162.578 120.734C163.094 120.505 163.659 120.391 164.273 120.391C165.247 120.391 166.01 120.635 166.562 121.125C167.115 121.609 167.401 122.279 167.422 123.133V127.023C167.422 127.799 167.521 128.417 167.719 128.875V129H166.203ZM163.805 127.898C164.258 127.898 164.688 127.781 165.094 127.547C165.5 127.312 165.794 127.008 165.977 126.633V124.898H164.844C163.073 124.898 162.188 125.417 162.188 126.453C162.188 126.906 162.339 127.26 162.641 127.516C162.943 127.771 163.331 127.898 163.805 127.898ZM174.609 126.758C174.609 126.367 174.461 126.065 174.164 125.852C173.872 125.633 173.359 125.445 172.625 125.289C171.896 125.133 171.315 124.945 170.883 124.727C170.456 124.508 170.138 124.247 169.93 123.945C169.727 123.643 169.625 123.284 169.625 122.867C169.625 122.174 169.917 121.589 170.5 121.109C171.089 120.63 171.839 120.391 172.75 120.391C173.708 120.391 174.484 120.638 175.078 121.133C175.677 121.628 175.977 122.26 175.977 123.031H174.523C174.523 122.635 174.354 122.294 174.016 122.008C173.682 121.721 173.26 121.578 172.75 121.578C172.224 121.578 171.812 121.693 171.516 121.922C171.219 122.151 171.07 122.451 171.07 122.82C171.07 123.169 171.208 123.432 171.484 123.609C171.76 123.786 172.258 123.956 172.977 124.117C173.701 124.279 174.286 124.471 174.734 124.695C175.182 124.919 175.513 125.19 175.727 125.508C175.945 125.82 176.055 126.203 176.055 126.656C176.055 127.411 175.753 128.018 175.148 128.477C174.544 128.93 173.76 129.156 172.797 129.156C172.12 129.156 171.521 129.036 171 128.797C170.479 128.557 170.07 128.224 169.773 127.797C169.482 127.365 169.336 126.898 169.336 126.398H170.781C170.807 126.883 171 127.268 171.359 127.555C171.724 127.836 172.203 127.977 172.797 127.977C173.344 127.977 173.781 127.867 174.109 127.648C174.443 127.424 174.609 127.128 174.609 126.758ZM182.617 129V121.664H181.281V120.547H182.617V119.68C182.617 118.773 182.859 118.073 183.344 117.578C183.828 117.083 184.513 116.836 185.398 116.836C185.732 116.836 186.062 116.88 186.391 116.969L186.312 118.141C186.068 118.094 185.807 118.07 185.531 118.07C185.062 118.07 184.701 118.208 184.445 118.484C184.19 118.755 184.062 119.146 184.062 119.656V120.547H185.867V121.664H184.062V129H182.617ZM187.086 124.695C187.086 123.867 187.247 123.122 187.57 122.461C187.898 121.799 188.352 121.289 188.93 120.93C189.513 120.57 190.177 120.391 190.922 120.391C192.073 120.391 193.003 120.789 193.711 121.586C194.424 122.383 194.781 123.443 194.781 124.766V124.867C194.781 125.69 194.622 126.43 194.305 127.086C193.992 127.737 193.542 128.245 192.953 128.609C192.37 128.974 191.698 129.156 190.938 129.156C189.792 129.156 188.862 128.758 188.148 127.961C187.44 127.164 187.086 126.109 187.086 124.797V124.695ZM188.539 124.867C188.539 125.805 188.755 126.557 189.188 127.125C189.625 127.693 190.208 127.977 190.938 127.977C191.672 127.977 192.255 127.69 192.688 127.117C193.12 126.539 193.336 125.732 193.336 124.695C193.336 123.768 193.115 123.018 192.672 122.445C192.234 121.867 191.651 121.578 190.922 121.578C190.208 121.578 189.633 121.862 189.195 122.43C188.758 122.997 188.539 123.81 188.539 124.867ZM200.68 121.844C200.461 121.807 200.224 121.789 199.969 121.789C199.021 121.789 198.378 122.193 198.039 123V129H196.594V120.547H198L198.023 121.523C198.497 120.768 199.169 120.391 200.039 120.391C200.32 120.391 200.534 120.427 200.68 120.5V121.844ZM211.578 126.07C211.578 125.591 211.409 125.188 211.07 124.859C210.737 124.531 210.172 124.234 209.375 123.969C208.266 123.63 207.456 123.19 206.945 122.648C206.44 122.102 206.188 121.409 206.188 120.57C206.188 119.716 206.435 119.016 206.93 118.469C207.43 117.922 208.115 117.596 208.984 117.492V115.781H210.148V117.5C211.023 117.62 211.703 117.987 212.188 118.602C212.677 119.216 212.922 120.057 212.922 121.125H211.484C211.484 120.391 211.31 119.807 210.961 119.375C210.612 118.943 210.141 118.727 209.547 118.727C208.927 118.727 208.453 118.888 208.125 119.211C207.797 119.529 207.633 119.974 207.633 120.547C207.633 121.078 207.805 121.503 208.148 121.82C208.497 122.133 209.068 122.419 209.859 122.68C210.656 122.935 211.276 123.219 211.719 123.531C212.167 123.839 212.495 124.198 212.703 124.609C212.917 125.021 213.023 125.503 213.023 126.055C213.023 126.935 212.758 127.643 212.227 128.18C211.701 128.716 210.961 129.034 210.008 129.133V130.625H208.852V129.133C207.883 129.044 207.122 128.701 206.57 128.102C206.023 127.497 205.75 126.68 205.75 125.648H207.195C207.195 126.372 207.385 126.93 207.766 127.32C208.146 127.711 208.685 127.906 209.383 127.906C210.065 127.906 210.602 127.742 210.992 127.414C211.383 127.086 211.578 126.638 211.578 126.07ZM215.484 123.297L216.062 117.625H221.891V118.961H217.289L216.945 122.062C217.503 121.734 218.135 121.57 218.844 121.57C219.88 121.57 220.703 121.914 221.312 122.602C221.922 123.284 222.227 124.208 222.227 125.375C222.227 126.547 221.909 127.471 221.273 128.148C220.643 128.82 219.76 129.156 218.625 129.156C217.62 129.156 216.799 128.878 216.164 128.32C215.529 127.763 215.167 126.992 215.078 126.008H216.445C216.534 126.659 216.766 127.151 217.141 127.484C217.516 127.812 218.01 127.977 218.625 127.977C219.297 127.977 219.823 127.747 220.203 127.289C220.589 126.831 220.781 126.198 220.781 125.391C220.781 124.63 220.573 124.021 220.156 123.562C219.745 123.099 219.195 122.867 218.508 122.867C217.878 122.867 217.383 123.005 217.023 123.281L216.641 123.594L215.484 123.297ZM223.984 128.242C223.984 127.992 224.057 127.784 224.203 127.617C224.354 127.451 224.578 127.367 224.875 127.367C225.172 127.367 225.396 127.451 225.547 127.617C225.703 127.784 225.781 127.992 225.781 128.242C225.781 128.482 225.703 128.682 225.547 128.844C225.396 129.005 225.172 129.086 224.875 129.086C224.578 129.086 224.354 129.005 224.203 128.844C224.057 128.682 223.984 128.482 223.984 128.242ZM233.562 124C233.26 124.359 232.898 124.648 232.477 124.867C232.06 125.086 231.602 125.195 231.102 125.195C230.445 125.195 229.872 125.034 229.383 124.711C228.898 124.388 228.523 123.935 228.258 123.352C227.992 122.763 227.859 122.115 227.859 121.406C227.859 120.646 228.003 119.961 228.289 119.352C228.581 118.742 228.992 118.276 229.523 117.953C230.055 117.63 230.674 117.469 231.383 117.469C232.508 117.469 233.393 117.891 234.039 118.734C234.69 119.573 235.016 120.719 235.016 122.172V122.594C235.016 124.807 234.578 126.424 233.703 127.445C232.828 128.461 231.508 128.982 229.742 129.008H229.461V127.789H229.766C230.958 127.768 231.875 127.458 232.516 126.859C233.156 126.255 233.505 125.302 233.562 124ZM231.336 124C231.82 124 232.266 123.852 232.672 123.555C233.083 123.258 233.383 122.891 233.57 122.453V121.875C233.57 120.927 233.365 120.156 232.953 119.562C232.542 118.969 232.021 118.672 231.391 118.672C230.755 118.672 230.245 118.917 229.859 119.406C229.474 119.891 229.281 120.531 229.281 121.328C229.281 122.104 229.466 122.745 229.836 123.25C230.211 123.75 230.711 124 231.336 124ZM242.547 124C242.245 124.359 241.883 124.648 241.461 124.867C241.044 125.086 240.586 125.195 240.086 125.195C239.43 125.195 238.857 125.034 238.367 124.711C237.883 124.388 237.508 123.935 237.242 123.352C236.977 122.763 236.844 122.115 236.844 121.406C236.844 120.646 236.987 119.961 237.273 119.352C237.565 118.742 237.977 118.276 238.508 117.953C239.039 117.63 239.659 117.469 240.367 117.469C241.492 117.469 242.378 117.891 243.023 118.734C243.674 119.573 244 120.719 244 122.172V122.594C244 124.807 243.562 126.424 242.688 127.445C241.812 128.461 240.492 128.982 238.727 129.008H238.445V127.789H238.75C239.943 127.768 240.859 127.458 241.5 126.859C242.141 126.255 242.49 125.302 242.547 124ZM240.32 124C240.805 124 241.25 123.852 241.656 123.555C242.068 123.258 242.367 122.891 242.555 122.453V121.875C242.555 120.927 242.349 120.156 241.938 119.562C241.526 118.969 241.005 118.672 240.375 118.672C239.74 118.672 239.229 118.917 238.844 119.406C238.458 119.891 238.266 120.531 238.266 121.328C238.266 122.104 238.451 122.745 238.82 123.25C239.195 123.75 239.695 124 240.32 124ZM253.617 129.156C252.471 129.156 251.539 128.781 250.82 128.031C250.102 127.276 249.742 126.268 249.742 125.008V124.742C249.742 123.904 249.901 123.156 250.219 122.5C250.542 121.839 250.99 121.323 251.562 120.953C252.141 120.578 252.766 120.391 253.438 120.391C254.536 120.391 255.391 120.753 256 121.477C256.609 122.201 256.914 123.237 256.914 124.586V125.188H251.188C251.208 126.021 251.451 126.695 251.914 127.211C252.383 127.721 252.977 127.977 253.695 127.977C254.206 127.977 254.638 127.872 254.992 127.664C255.346 127.456 255.656 127.18 255.922 126.836L256.805 127.523C256.096 128.612 255.034 129.156 253.617 129.156ZM253.438 121.578C252.854 121.578 252.365 121.792 251.969 122.219C251.573 122.641 251.328 123.234 251.234 124H255.469V123.891C255.427 123.156 255.229 122.589 254.875 122.188C254.521 121.781 254.042 121.578 253.438 121.578ZM263.812 129C263.729 128.833 263.661 128.536 263.609 128.109C262.938 128.807 262.135 129.156 261.203 129.156C260.37 129.156 259.685 128.922 259.148 128.453C258.617 127.979 258.352 127.38 258.352 126.656C258.352 125.776 258.685 125.094 259.352 124.609C260.023 124.12 260.966 123.875 262.18 123.875H263.586V123.211C263.586 122.706 263.435 122.305 263.133 122.008C262.831 121.706 262.385 121.555 261.797 121.555C261.281 121.555 260.849 121.685 260.5 121.945C260.151 122.206 259.977 122.521 259.977 122.891H258.523C258.523 122.469 258.672 122.062 258.969 121.672C259.271 121.276 259.677 120.964 260.188 120.734C260.703 120.505 261.268 120.391 261.883 120.391C262.857 120.391 263.62 120.635 264.172 121.125C264.724 121.609 265.01 122.279 265.031 123.133V127.023C265.031 127.799 265.13 128.417 265.328 128.875V129H263.812ZM261.414 127.898C261.867 127.898 262.297 127.781 262.703 127.547C263.109 127.312 263.404 127.008 263.586 126.633V124.898H262.453C260.682 124.898 259.797 125.417 259.797 126.453C259.797 126.906 259.948 127.26 260.25 127.516C260.552 127.771 260.94 127.898 261.414 127.898ZM270.688 127.977C271.203 127.977 271.654 127.82 272.039 127.508C272.424 127.195 272.638 126.805 272.68 126.336H274.047C274.021 126.82 273.854 127.281 273.547 127.719C273.24 128.156 272.828 128.505 272.312 128.766C271.802 129.026 271.26 129.156 270.688 129.156C269.536 129.156 268.62 128.773 267.938 128.008C267.26 127.237 266.922 126.185 266.922 124.852V124.609C266.922 123.786 267.073 123.055 267.375 122.414C267.677 121.773 268.109 121.276 268.672 120.922C269.24 120.568 269.909 120.391 270.68 120.391C271.628 120.391 272.414 120.674 273.039 121.242C273.669 121.81 274.005 122.547 274.047 123.453H272.68C272.638 122.906 272.43 122.458 272.055 122.109C271.685 121.755 271.227 121.578 270.68 121.578C269.945 121.578 269.375 121.844 268.969 122.375C268.568 122.901 268.367 123.664 268.367 124.664V124.938C268.367 125.911 268.568 126.661 268.969 127.188C269.37 127.714 269.943 127.977 270.688 127.977ZM277.117 121.57C277.758 120.784 278.591 120.391 279.617 120.391C281.404 120.391 282.305 121.398 282.32 123.414V129H280.875V123.406C280.87 122.797 280.729 122.346 280.453 122.055C280.182 121.763 279.758 121.617 279.18 121.617C278.711 121.617 278.299 121.742 277.945 121.992C277.591 122.242 277.315 122.57 277.117 122.977V129H275.672V117H277.117V121.57ZM289.812 120.547L289.852 121.484C290.471 120.755 291.307 120.391 292.359 120.391C293.542 120.391 294.346 120.844 294.773 121.75C295.055 121.344 295.419 121.016 295.867 120.766C296.32 120.516 296.854 120.391 297.469 120.391C299.323 120.391 300.266 121.372 300.297 123.336V129H298.852V123.422C298.852 122.818 298.714 122.367 298.438 122.07C298.161 121.768 297.698 121.617 297.047 121.617C296.51 121.617 296.065 121.779 295.711 122.102C295.357 122.419 295.151 122.849 295.094 123.391V129H293.641V123.461C293.641 122.232 293.039 121.617 291.836 121.617C290.888 121.617 290.24 122.021 289.891 122.828V129H288.445V120.547H289.812ZM302.102 124.695C302.102 123.867 302.263 123.122 302.586 122.461C302.914 121.799 303.367 121.289 303.945 120.93C304.529 120.57 305.193 120.391 305.938 120.391C307.089 120.391 308.018 120.789 308.727 121.586C309.44 122.383 309.797 123.443 309.797 124.766V124.867C309.797 125.69 309.638 126.43 309.32 127.086C309.008 127.737 308.557 128.245 307.969 128.609C307.385 128.974 306.714 129.156 305.953 129.156C304.807 129.156 303.878 128.758 303.164 127.961C302.456 127.164 302.102 126.109 302.102 124.797V124.695ZM303.555 124.867C303.555 125.805 303.771 126.557 304.203 127.125C304.641 127.693 305.224 127.977 305.953 127.977C306.688 127.977 307.271 127.69 307.703 127.117C308.135 126.539 308.352 125.732 308.352 124.695C308.352 123.768 308.13 123.018 307.688 122.445C307.25 121.867 306.667 121.578 305.938 121.578C305.224 121.578 304.648 121.862 304.211 122.43C303.773 122.997 303.555 123.81 303.555 124.867ZM312.977 120.547L313.023 121.609C313.669 120.797 314.513 120.391 315.555 120.391C317.341 120.391 318.242 121.398 318.258 123.414V129H316.812V123.406C316.807 122.797 316.667 122.346 316.391 122.055C316.12 121.763 315.695 121.617 315.117 121.617C314.648 121.617 314.237 121.742 313.883 121.992C313.529 122.242 313.253 122.57 313.055 122.977V129H311.609V120.547H312.977ZM322.398 118.5V120.547H323.977V121.664H322.398V126.906C322.398 127.245 322.469 127.5 322.609 127.672C322.75 127.839 322.99 127.922 323.328 127.922C323.495 127.922 323.724 127.891 324.016 127.828V129C323.635 129.104 323.266 129.156 322.906 129.156C322.26 129.156 321.773 128.961 321.445 128.57C321.117 128.18 320.953 127.625 320.953 126.906V121.664H319.414V120.547H320.953V118.5H322.398ZM327.117 121.57C327.758 120.784 328.591 120.391 329.617 120.391C331.404 120.391 332.305 121.398 332.32 123.414V129H330.875V123.406C330.87 122.797 330.729 122.346 330.453 122.055C330.182 121.763 329.758 121.617 329.18 121.617C328.711 121.617 328.299 121.742 327.945 121.992C327.591 122.242 327.315 122.57 327.117 122.977V129H325.672V117H327.117V121.57ZM334.516 128.242C334.516 127.992 334.589 127.784 334.734 127.617C334.885 127.451 335.109 127.367 335.406 127.367C335.703 127.367 335.927 127.451 336.078 127.617C336.234 127.784 336.312 127.992 336.312 128.242C336.312 128.482 336.234 128.682 336.078 128.844C335.927 129.005 335.703 129.086 335.406 129.086C335.109 129.086 334.885 129.005 334.734 128.844C334.589 128.682 334.516 128.482 334.516 128.242ZM347.891 129C347.807 128.833 347.74 128.536 347.688 128.109C347.016 128.807 346.214 129.156 345.281 129.156C344.448 129.156 343.763 128.922 343.227 128.453C342.695 127.979 342.43 127.38 342.43 126.656C342.43 125.776 342.763 125.094 343.43 124.609C344.102 124.12 345.044 123.875 346.258 123.875H347.664V123.211C347.664 122.706 347.513 122.305 347.211 122.008C346.909 121.706 346.464 121.555 345.875 121.555C345.359 121.555 344.927 121.685 344.578 121.945C344.229 122.206 344.055 122.521 344.055 122.891H342.602C342.602 122.469 342.75 122.062 343.047 121.672C343.349 121.276 343.755 120.964 344.266 120.734C344.781 120.505 345.346 120.391 345.961 120.391C346.935 120.391 347.698 120.635 348.25 121.125C348.802 121.609 349.089 122.279 349.109 123.133V127.023C349.109 127.799 349.208 128.417 349.406 128.875V129H347.891ZM345.492 127.898C345.945 127.898 346.375 127.781 346.781 127.547C347.188 127.312 347.482 127.008 347.664 126.633V124.898H346.531C344.76 124.898 343.875 125.417 343.875 126.453C343.875 126.906 344.026 127.26 344.328 127.516C344.63 127.771 345.018 127.898 345.492 127.898ZM352.742 120.547L352.789 121.609C353.435 120.797 354.279 120.391 355.32 120.391C357.107 120.391 358.008 121.398 358.023 123.414V129H356.578V123.406C356.573 122.797 356.432 122.346 356.156 122.055C355.885 121.763 355.461 121.617 354.883 121.617C354.414 121.617 354.003 121.742 353.648 121.992C353.294 122.242 353.018 122.57 352.82 122.977V129H351.375V120.547H352.742ZM359.852 124.703C359.852 123.406 360.159 122.365 360.773 121.578C361.388 120.786 362.193 120.391 363.188 120.391C364.177 120.391 364.961 120.729 365.539 121.406V117H366.984V129H365.656L365.586 128.094C365.008 128.802 364.203 129.156 363.172 129.156C362.193 129.156 361.393 128.755 360.773 127.953C360.159 127.151 359.852 126.104 359.852 124.812V124.703ZM361.297 124.867C361.297 125.826 361.495 126.576 361.891 127.117C362.286 127.659 362.833 127.93 363.531 127.93C364.448 127.93 365.117 127.518 365.539 126.695V122.812C365.107 122.016 364.443 121.617 363.547 121.617C362.839 121.617 362.286 121.891 361.891 122.438C361.495 122.984 361.297 123.794 361.297 124.867ZM375.969 126.883L377.938 120.547H379.484L376.086 130.305C375.56 131.711 374.724 132.414 373.578 132.414L373.305 132.391L372.766 132.289V131.117L373.156 131.148C373.646 131.148 374.026 131.049 374.297 130.852C374.573 130.654 374.799 130.292 374.977 129.766L375.297 128.906L372.281 120.547H373.859L375.969 126.883ZM380.273 124.695C380.273 123.867 380.435 123.122 380.758 122.461C381.086 121.799 381.539 121.289 382.117 120.93C382.701 120.57 383.365 120.391 384.109 120.391C385.26 120.391 386.19 120.789 386.898 121.586C387.612 122.383 387.969 123.443 387.969 124.766V124.867C387.969 125.69 387.81 126.43 387.492 127.086C387.18 127.737 386.729 128.245 386.141 128.609C385.557 128.974 384.885 129.156 384.125 129.156C382.979 129.156 382.049 128.758 381.336 127.961C380.628 127.164 380.273 126.109 380.273 124.797V124.695ZM381.727 124.867C381.727 125.805 381.943 126.557 382.375 127.125C382.812 127.693 383.396 127.977 384.125 127.977C384.859 127.977 385.443 127.69 385.875 127.117C386.307 126.539 386.523 125.732 386.523 124.695C386.523 123.768 386.302 123.018 385.859 122.445C385.422 121.867 384.839 121.578 384.109 121.578C383.396 121.578 382.82 121.862 382.383 122.43C381.945 122.997 381.727 123.81 381.727 124.867ZM395 128.164C394.438 128.826 393.612 129.156 392.523 129.156C391.622 129.156 390.935 128.896 390.461 128.375C389.992 127.849 389.755 127.073 389.75 126.047V120.547H391.195V126.008C391.195 127.289 391.716 127.93 392.758 127.93C393.862 127.93 394.596 127.518 394.961 126.695V120.547H396.406V129H395.031L395 128.164ZM405.969 127.977C406.484 127.977 406.935 127.82 407.32 127.508C407.706 127.195 407.919 126.805 407.961 126.336H409.328C409.302 126.82 409.135 127.281 408.828 127.719C408.521 128.156 408.109 128.505 407.594 128.766C407.083 129.026 406.542 129.156 405.969 129.156C404.818 129.156 403.901 128.773 403.219 128.008C402.542 127.237 402.203 126.185 402.203 124.852V124.609C402.203 123.786 402.354 123.055 402.656 122.414C402.958 121.773 403.391 121.276 403.953 120.922C404.521 120.568 405.19 120.391 405.961 120.391C406.909 120.391 407.695 120.674 408.32 121.242C408.951 121.81 409.286 122.547 409.328 123.453H407.961C407.919 122.906 407.711 122.458 407.336 122.109C406.966 121.755 406.508 121.578 405.961 121.578C405.227 121.578 404.656 121.844 404.25 122.375C403.849 122.901 403.648 123.664 403.648 124.664V124.938C403.648 125.911 403.849 126.661 404.25 127.188C404.651 127.714 405.224 127.977 405.969 127.977ZM416.172 129C416.089 128.833 416.021 128.536 415.969 128.109C415.297 128.807 414.495 129.156 413.562 129.156C412.729 129.156 412.044 128.922 411.508 128.453C410.977 127.979 410.711 127.38 410.711 126.656C410.711 125.776 411.044 125.094 411.711 124.609C412.383 124.12 413.326 123.875 414.539 123.875H415.945V123.211C415.945 122.706 415.794 122.305 415.492 122.008C415.19 121.706 414.745 121.555 414.156 121.555C413.641 121.555 413.208 121.685 412.859 121.945C412.51 122.206 412.336 122.521 412.336 122.891H410.883C410.883 122.469 411.031 122.062 411.328 121.672C411.63 121.276 412.036 120.964 412.547 120.734C413.062 120.505 413.628 120.391 414.242 120.391C415.216 120.391 415.979 120.635 416.531 121.125C417.083 121.609 417.37 122.279 417.391 123.133V127.023C417.391 127.799 417.49 128.417 417.688 128.875V129H416.172ZM413.773 127.898C414.227 127.898 414.656 127.781 415.062 127.547C415.469 127.312 415.763 127.008 415.945 126.633V124.898H414.812C413.042 124.898 412.156 125.417 412.156 126.453C412.156 126.906 412.307 127.26 412.609 127.516C412.911 127.771 413.299 127.898 413.773 127.898ZM421.023 120.547L421.07 121.609C421.716 120.797 422.56 120.391 423.602 120.391C425.388 120.391 426.289 121.398 426.305 123.414V129H424.859V123.406C424.854 122.797 424.714 122.346 424.438 122.055C424.167 121.763 423.742 121.617 423.164 121.617C422.695 121.617 422.284 121.742 421.93 121.992C421.576 122.242 421.299 122.57 421.102 122.977V129H419.656V120.547H421.023ZM134.484 151.977C135 151.977 135.451 151.82 135.836 151.508C136.221 151.195 136.435 150.805 136.477 150.336H137.844C137.818 150.82 137.651 151.281 137.344 151.719C137.036 152.156 136.625 152.505 136.109 152.766C135.599 153.026 135.057 153.156 134.484 153.156C133.333 153.156 132.417 152.773 131.734 152.008C131.057 151.237 130.719 150.185 130.719 148.852V148.609C130.719 147.786 130.87 147.055 131.172 146.414C131.474 145.773 131.906 145.276 132.469 144.922C133.036 144.568 133.706 144.391 134.477 144.391C135.424 144.391 136.211 144.674 136.836 145.242C137.466 145.81 137.802 146.547 137.844 147.453H136.477C136.435 146.906 136.227 146.458 135.852 146.109C135.482 145.755 135.023 145.578 134.477 145.578C133.742 145.578 133.172 145.844 132.766 146.375C132.365 146.901 132.164 147.664 132.164 148.664V148.938C132.164 149.911 132.365 150.661 132.766 151.188C133.167 151.714 133.74 151.977 134.484 151.977ZM144.688 153C144.604 152.833 144.536 152.536 144.484 152.109C143.812 152.807 143.01 153.156 142.078 153.156C141.245 153.156 140.56 152.922 140.023 152.453C139.492 151.979 139.227 151.38 139.227 150.656C139.227 149.776 139.56 149.094 140.227 148.609C140.898 148.12 141.841 147.875 143.055 147.875H144.461V147.211C144.461 146.706 144.31 146.305 144.008 146.008C143.706 145.706 143.26 145.555 142.672 145.555C142.156 145.555 141.724 145.685 141.375 145.945C141.026 146.206 140.852 146.521 140.852 146.891H139.398C139.398 146.469 139.547 146.062 139.844 145.672C140.146 145.276 140.552 144.964 141.062 144.734C141.578 144.505 142.143 144.391 142.758 144.391C143.732 144.391 144.495 144.635 145.047 145.125C145.599 145.609 145.885 146.279 145.906 147.133V151.023C145.906 151.799 146.005 152.417 146.203 152.875V153H144.688ZM142.289 151.898C142.742 151.898 143.172 151.781 143.578 151.547C143.984 151.312 144.279 151.008 144.461 150.633V148.898H143.328C141.557 148.898 140.672 149.417 140.672 150.453C140.672 150.906 140.823 151.26 141.125 151.516C141.427 151.771 141.815 151.898 142.289 151.898ZM152.258 145.844C152.039 145.807 151.802 145.789 151.547 145.789C150.599 145.789 149.956 146.193 149.617 147V153H148.172V144.547H149.578L149.602 145.523C150.076 144.768 150.747 144.391 151.617 144.391C151.898 144.391 152.112 144.427 152.258 144.5V145.844ZM157.68 145.844C157.461 145.807 157.224 145.789 156.969 145.789C156.021 145.789 155.378 146.193 155.039 147V153H153.594V144.547H155L155.023 145.523C155.497 144.768 156.169 144.391 157.039 144.391C157.32 144.391 157.534 144.427 157.68 144.5V145.844ZM161.922 150.883L163.891 144.547H165.438L162.039 154.305C161.513 155.711 160.677 156.414 159.531 156.414L159.258 156.391L158.719 156.289V155.117L159.109 155.148C159.599 155.148 159.979 155.049 160.25 154.852C160.526 154.654 160.753 154.292 160.93 153.766L161.25 152.906L158.234 144.547H159.812L161.922 150.883ZM172.664 142.5V144.547H174.242V145.664H172.664V150.906C172.664 151.245 172.734 151.5 172.875 151.672C173.016 151.839 173.255 151.922 173.594 151.922C173.76 151.922 173.99 151.891 174.281 151.828V153C173.901 153.104 173.531 153.156 173.172 153.156C172.526 153.156 172.039 152.961 171.711 152.57C171.383 152.18 171.219 151.625 171.219 150.906V145.664H169.68V144.547H171.219V142.5H172.664ZM177.383 145.57C178.023 144.784 178.857 144.391 179.883 144.391C181.669 144.391 182.57 145.398 182.586 147.414V153H181.141V147.406C181.135 146.797 180.995 146.346 180.719 146.055C180.448 145.763 180.023 145.617 179.445 145.617C178.977 145.617 178.565 145.742 178.211 145.992C177.857 146.242 177.581 146.57 177.383 146.977V153H175.938V141H177.383V145.57ZM188.258 153.156C187.112 153.156 186.18 152.781 185.461 152.031C184.742 151.276 184.383 150.268 184.383 149.008V148.742C184.383 147.904 184.542 147.156 184.859 146.5C185.182 145.839 185.63 145.323 186.203 144.953C186.781 144.578 187.406 144.391 188.078 144.391C189.177 144.391 190.031 144.753 190.641 145.477C191.25 146.201 191.555 147.237 191.555 148.586V149.188H185.828C185.849 150.021 186.091 150.695 186.555 151.211C187.023 151.721 187.617 151.977 188.336 151.977C188.846 151.977 189.279 151.872 189.633 151.664C189.987 151.456 190.297 151.18 190.562 150.836L191.445 151.523C190.737 152.612 189.674 153.156 188.258 153.156ZM188.078 145.578C187.495 145.578 187.005 145.792 186.609 146.219C186.214 146.641 185.969 147.234 185.875 148H190.109V147.891C190.068 147.156 189.87 146.589 189.516 146.188C189.161 145.781 188.682 145.578 188.078 145.578ZM194.594 144.547L194.633 145.484C195.253 144.755 196.089 144.391 197.141 144.391C198.323 144.391 199.128 144.844 199.555 145.75C199.836 145.344 200.201 145.016 200.648 144.766C201.102 144.516 201.635 144.391 202.25 144.391C204.104 144.391 205.047 145.372 205.078 147.336V153H203.633V147.422C203.633 146.818 203.495 146.367 203.219 146.07C202.943 145.768 202.479 145.617 201.828 145.617C201.292 145.617 200.846 145.779 200.492 146.102C200.138 146.419 199.932 146.849 199.875 147.391V153H198.422V147.461C198.422 146.232 197.82 145.617 196.617 145.617C195.669 145.617 195.021 146.021 194.672 146.828V153H193.227V144.547H194.594ZM210.852 148.695C210.852 147.867 211.013 147.122 211.336 146.461C211.664 145.799 212.117 145.289 212.695 144.93C213.279 144.57 213.943 144.391 214.688 144.391C215.839 144.391 216.768 144.789 217.477 145.586C218.19 146.383 218.547 147.443 218.547 148.766V148.867C218.547 149.69 218.388 150.43 218.07 151.086C217.758 151.737 217.307 152.245 216.719 152.609C216.135 152.974 215.464 153.156 214.703 153.156C213.557 153.156 212.628 152.758 211.914 151.961C211.206 151.164 210.852 150.109 210.852 148.797V148.695ZM212.305 148.867C212.305 149.805 212.521 150.557 212.953 151.125C213.391 151.693 213.974 151.977 214.703 151.977C215.438 151.977 216.021 151.69 216.453 151.117C216.885 150.539 217.102 149.732 217.102 148.695C217.102 147.768 216.88 147.018 216.438 146.445C216 145.867 215.417 145.578 214.688 145.578C213.974 145.578 213.398 145.862 212.961 146.43C212.523 146.997 212.305 147.81 212.305 148.867ZM223.023 151.039L225.117 144.547H226.594L223.562 153H222.461L219.398 144.547H220.875L223.023 151.039ZM231.383 153.156C230.237 153.156 229.305 152.781 228.586 152.031C227.867 151.276 227.508 150.268 227.508 149.008V148.742C227.508 147.904 227.667 147.156 227.984 146.5C228.307 145.839 228.755 145.323 229.328 144.953C229.906 144.578 230.531 144.391 231.203 144.391C232.302 144.391 233.156 144.753 233.766 145.477C234.375 146.201 234.68 147.237 234.68 148.586V149.188H228.953C228.974 150.021 229.216 150.695 229.68 151.211C230.148 151.721 230.742 151.977 231.461 151.977C231.971 151.977 232.404 151.872 232.758 151.664C233.112 151.456 233.422 151.18 233.688 150.836L234.57 151.523C233.862 152.612 232.799 153.156 231.383 153.156ZM231.203 145.578C230.62 145.578 230.13 145.792 229.734 146.219C229.339 146.641 229.094 147.234 229 148H233.234V147.891C233.193 147.156 232.995 146.589 232.641 146.188C232.286 145.781 231.807 145.578 231.203 145.578ZM240.445 145.844C240.227 145.807 239.99 145.789 239.734 145.789C238.786 145.789 238.143 146.193 237.805 147V153H236.359V144.547H237.766L237.789 145.523C238.263 144.768 238.935 144.391 239.805 144.391C240.086 144.391 240.299 144.427 240.445 144.5V145.844ZM247.711 142.5V144.547H249.289V145.664H247.711V150.906C247.711 151.245 247.781 151.5 247.922 151.672C248.062 151.839 248.302 151.922 248.641 151.922C248.807 151.922 249.036 151.891 249.328 151.828V153C248.948 153.104 248.578 153.156 248.219 153.156C247.573 153.156 247.086 152.961 246.758 152.57C246.43 152.18 246.266 151.625 246.266 150.906V145.664H244.727V144.547H246.266V142.5H247.711ZM250.445 148.695C250.445 147.867 250.607 147.122 250.93 146.461C251.258 145.799 251.711 145.289 252.289 144.93C252.872 144.57 253.536 144.391 254.281 144.391C255.432 144.391 256.362 144.789 257.07 145.586C257.784 146.383 258.141 147.443 258.141 148.766V148.867C258.141 149.69 257.982 150.43 257.664 151.086C257.352 151.737 256.901 152.245 256.312 152.609C255.729 152.974 255.057 153.156 254.297 153.156C253.151 153.156 252.221 152.758 251.508 151.961C250.799 151.164 250.445 150.109 250.445 148.797V148.695ZM251.898 148.867C251.898 149.805 252.115 150.557 252.547 151.125C252.984 151.693 253.568 151.977 254.297 151.977C255.031 151.977 255.615 151.69 256.047 151.117C256.479 150.539 256.695 149.732 256.695 148.695C256.695 147.768 256.474 147.018 256.031 146.445C255.594 145.867 255.01 145.578 254.281 145.578C253.568 145.578 252.992 145.862 252.555 146.43C252.117 146.997 251.898 147.81 251.898 148.867ZM265.883 142.5V144.547H267.461V145.664H265.883V150.906C265.883 151.245 265.953 151.5 266.094 151.672C266.234 151.839 266.474 151.922 266.812 151.922C266.979 151.922 267.208 151.891 267.5 151.828V153C267.12 153.104 266.75 153.156 266.391 153.156C265.745 153.156 265.258 152.961 264.93 152.57C264.602 152.18 264.438 151.625 264.438 150.906V145.664H262.898V144.547H264.438V142.5H265.883ZM270.602 145.57C271.242 144.784 272.076 144.391 273.102 144.391C274.888 144.391 275.789 145.398 275.805 147.414V153H274.359V147.406C274.354 146.797 274.214 146.346 273.938 146.055C273.667 145.763 273.242 145.617 272.664 145.617C272.195 145.617 271.784 145.742 271.43 145.992C271.076 146.242 270.799 146.57 270.602 146.977V153H269.156V141H270.602V145.57ZM281.477 153.156C280.331 153.156 279.398 152.781 278.68 152.031C277.961 151.276 277.602 150.268 277.602 149.008V148.742C277.602 147.904 277.76 147.156 278.078 146.5C278.401 145.839 278.849 145.323 279.422 144.953C280 144.578 280.625 144.391 281.297 144.391C282.396 144.391 283.25 144.753 283.859 145.477C284.469 146.201 284.773 147.237 284.773 148.586V149.188H279.047C279.068 150.021 279.31 150.695 279.773 151.211C280.242 151.721 280.836 151.977 281.555 151.977C282.065 151.977 282.497 151.872 282.852 151.664C283.206 151.456 283.516 151.18 283.781 150.836L284.664 151.523C283.956 152.612 282.893 153.156 281.477 153.156ZM281.297 145.578C280.714 145.578 280.224 145.792 279.828 146.219C279.432 146.641 279.188 147.234 279.094 148H283.328V147.891C283.286 147.156 283.089 146.589 282.734 146.188C282.38 145.781 281.901 145.578 281.297 145.578ZM291.789 144.547L291.836 145.609C292.482 144.797 293.326 144.391 294.367 144.391C296.154 144.391 297.055 145.398 297.07 147.414V153H295.625V147.406C295.62 146.797 295.479 146.346 295.203 146.055C294.932 145.763 294.508 145.617 293.93 145.617C293.461 145.617 293.049 145.742 292.695 145.992C292.341 146.242 292.065 146.57 291.867 146.977V153H290.422V144.547H291.789ZM302.758 153.156C301.612 153.156 300.68 152.781 299.961 152.031C299.242 151.276 298.883 150.268 298.883 149.008V148.742C298.883 147.904 299.042 147.156 299.359 146.5C299.682 145.839 300.13 145.323 300.703 144.953C301.281 144.578 301.906 144.391 302.578 144.391C303.677 144.391 304.531 144.753 305.141 145.477C305.75 146.201 306.055 147.237 306.055 148.586V149.188H300.328C300.349 150.021 300.591 150.695 301.055 151.211C301.523 151.721 302.117 151.977 302.836 151.977C303.346 151.977 303.779 151.872 304.133 151.664C304.487 151.456 304.797 151.18 305.062 150.836L305.945 151.523C305.237 152.612 304.174 153.156 302.758 153.156ZM302.578 145.578C301.995 145.578 301.505 145.792 301.109 146.219C300.714 146.641 300.469 147.234 300.375 148H304.609V147.891C304.568 147.156 304.37 146.589 304.016 146.188C303.661 145.781 303.182 145.578 302.578 145.578ZM310.57 147.633L312.445 144.547H314.133L311.367 148.727L314.219 153H312.547L310.594 149.836L308.641 153H306.961L309.812 148.727L307.047 144.547H308.719L310.57 147.633ZM317.633 142.5V144.547H319.211V145.664H317.633V150.906C317.633 151.245 317.703 151.5 317.844 151.672C317.984 151.839 318.224 151.922 318.562 151.922C318.729 151.922 318.958 151.891 319.25 151.828V153C318.87 153.104 318.5 153.156 318.141 153.156C317.495 153.156 317.008 152.961 316.68 152.57C316.352 152.18 316.188 151.625 316.188 150.906V145.664H314.648V144.547H316.188V142.5H317.633ZM326.234 144.547L326.273 145.484C326.893 144.755 327.729 144.391 328.781 144.391C329.964 144.391 330.768 144.844 331.195 145.75C331.477 145.344 331.841 145.016 332.289 144.766C332.742 144.516 333.276 144.391 333.891 144.391C335.745 144.391 336.688 145.372 336.719 147.336V153H335.273V147.422C335.273 146.818 335.135 146.367 334.859 146.07C334.583 145.768 334.12 145.617 333.469 145.617C332.932 145.617 332.487 145.779 332.133 146.102C331.779 146.419 331.573 146.849 331.516 147.391V153H330.062V147.461C330.062 146.232 329.461 145.617 328.258 145.617C327.31 145.617 326.661 146.021 326.312 146.828V153H324.867V144.547H326.234ZM338.523 148.695C338.523 147.867 338.685 147.122 339.008 146.461C339.336 145.799 339.789 145.289 340.367 144.93C340.951 144.57 341.615 144.391 342.359 144.391C343.51 144.391 344.44 144.789 345.148 145.586C345.862 146.383 346.219 147.443 346.219 148.766V148.867C346.219 149.69 346.06 150.43 345.742 151.086C345.43 151.737 344.979 152.245 344.391 152.609C343.807 152.974 343.135 153.156 342.375 153.156C341.229 153.156 340.299 152.758 339.586 151.961C338.878 151.164 338.523 150.109 338.523 148.797V148.695ZM339.977 148.867C339.977 149.805 340.193 150.557 340.625 151.125C341.062 151.693 341.646 151.977 342.375 151.977C343.109 151.977 343.693 151.69 344.125 151.117C344.557 150.539 344.773 149.732 344.773 148.695C344.773 147.768 344.552 147.018 344.109 146.445C343.672 145.867 343.089 145.578 342.359 145.578C341.646 145.578 341.07 145.862 340.633 146.43C340.195 146.997 339.977 147.81 339.977 148.867ZM349.398 144.547L349.445 145.609C350.091 144.797 350.935 144.391 351.977 144.391C353.763 144.391 354.664 145.398 354.68 147.414V153H353.234V147.406C353.229 146.797 353.089 146.346 352.812 146.055C352.542 145.763 352.117 145.617 351.539 145.617C351.07 145.617 350.659 145.742 350.305 145.992C349.951 146.242 349.674 146.57 349.477 146.977V153H348.031V144.547H349.398ZM358.82 142.5V144.547H360.398V145.664H358.82V150.906C358.82 151.245 358.891 151.5 359.031 151.672C359.172 151.839 359.411 151.922 359.75 151.922C359.917 151.922 360.146 151.891 360.438 151.828V153C360.057 153.104 359.688 153.156 359.328 153.156C358.682 153.156 358.195 152.961 357.867 152.57C357.539 152.18 357.375 151.625 357.375 150.906V145.664H355.836V144.547H357.375V142.5H358.82ZM363.539 145.57C364.18 144.784 365.013 144.391 366.039 144.391C367.826 144.391 368.727 145.398 368.742 147.414V153H367.297V147.406C367.292 146.797 367.151 146.346 366.875 146.055C366.604 145.763 366.18 145.617 365.602 145.617C365.133 145.617 364.721 145.742 364.367 145.992C364.013 146.242 363.737 146.57 363.539 146.977V153H362.094V141H363.539V145.57ZM370.938 152.242C370.938 151.992 371.01 151.784 371.156 151.617C371.307 151.451 371.531 151.367 371.828 151.367C372.125 151.367 372.349 151.451 372.5 151.617C372.656 151.784 372.734 151.992 372.734 152.242C372.734 152.482 372.656 152.682 372.5 152.844C372.349 153.005 372.125 153.086 371.828 153.086C371.531 153.086 371.307 153.005 371.156 152.844C371.01 152.682 370.938 152.482 370.938 152.242Z" fill="#576D81"/>
<path d="M144.966 68.1929H139.521V83H135.859V68.1929H130.488V65.2266H144.966V68.1929ZM144.067 81.2666C144.067 80.7051 144.254 80.2493 144.629 79.8994C145.011 79.5495 145.487 79.3745 146.057 79.3745C146.635 79.3745 147.111 79.5495 147.485 79.8994C147.868 80.2493 148.059 80.7051 148.059 81.2666C148.059 81.82 147.872 82.2716 147.497 82.6216C147.123 82.9634 146.643 83.1343 146.057 83.1343C145.479 83.1343 145.003 82.9634 144.629 82.6216C144.254 82.2716 144.067 81.82 144.067 81.2666ZM155.254 76.7378V83H151.591V65.2266H158.525C159.86 65.2266 161.032 65.4707 162.041 65.959C163.058 66.4473 163.839 67.1431 164.384 68.0464C164.93 68.9416 165.202 69.9629 165.202 71.1104C165.202 72.8519 164.604 74.2272 163.408 75.2363C162.22 76.2373 160.572 76.7378 158.464 76.7378H155.254ZM155.254 73.7715H158.525C159.493 73.7715 160.23 73.5436 160.734 73.0879C161.247 72.6322 161.504 71.9811 161.504 71.1348C161.504 70.264 161.247 69.5601 160.734 69.0229C160.222 68.4858 159.514 68.2091 158.61 68.1929H155.254V73.7715ZM175.204 83C175.042 82.6826 174.924 82.2879 174.85 81.8159C173.996 82.7681 172.885 83.2441 171.518 83.2441C170.224 83.2441 169.15 82.8698 168.295 82.1211C167.449 81.3724 167.026 80.4284 167.026 79.2891C167.026 77.8893 167.543 76.8151 168.576 76.0664C169.618 75.3177 171.119 74.9393 173.08 74.9312H174.704V74.1743C174.704 73.564 174.545 73.0757 174.228 72.7095C173.919 72.3433 173.426 72.1602 172.751 72.1602C172.157 72.1602 171.689 72.3026 171.347 72.5874C171.013 72.8722 170.847 73.2629 170.847 73.7593H167.319C167.319 72.9943 167.555 72.2863 168.027 71.6353C168.499 70.9842 169.166 70.4756 170.029 70.1094C170.891 69.735 171.86 69.5479 172.934 69.5479C174.562 69.5479 175.851 69.9588 176.804 70.7808C177.764 71.5946 178.244 72.742 178.244 74.2231V79.9482C178.252 81.2015 178.427 82.1496 178.769 82.7925V83H175.204ZM172.287 80.5464C172.808 80.5464 173.288 80.4325 173.727 80.2046C174.167 79.9686 174.492 79.6553 174.704 79.2646V76.9941H173.386C171.62 76.9941 170.68 77.6045 170.566 78.8252L170.554 79.0327C170.554 79.4722 170.708 79.8343 171.017 80.1191C171.327 80.404 171.75 80.5464 172.287 80.5464ZM188.307 79.3501C188.307 78.9188 188.092 78.5811 187.66 78.3369C187.237 78.0846 186.554 77.8608 185.61 77.6655C182.468 77.0063 180.898 75.6717 180.898 73.6616C180.898 72.4897 181.382 71.5132 182.35 70.7319C183.327 69.9425 184.6 69.5479 186.171 69.5479C187.848 69.5479 189.186 69.9425 190.187 70.7319C191.196 71.5213 191.701 72.5467 191.701 73.8081H188.173C188.173 73.3035 188.01 72.8885 187.685 72.563C187.359 72.2293 186.851 72.0625 186.159 72.0625C185.565 72.0625 185.105 72.1968 184.779 72.4653C184.454 72.7339 184.291 73.0757 184.291 73.4907C184.291 73.8813 184.474 74.1987 184.841 74.4429C185.215 74.6789 185.842 74.8864 186.72 75.0654C187.599 75.2363 188.34 75.4316 188.942 75.6514C190.806 76.335 191.737 77.519 191.737 79.2036C191.737 80.408 191.221 81.3846 190.187 82.1333C189.154 82.8739 187.819 83.2441 186.183 83.2441C185.077 83.2441 184.092 83.0488 183.229 82.6582C182.375 82.2594 181.703 81.7183 181.215 81.0347C180.727 80.3429 180.483 79.5983 180.483 78.8008H183.827C183.86 79.4274 184.092 79.9076 184.523 80.2412C184.954 80.5749 185.532 80.7417 186.257 80.7417C186.932 80.7417 187.441 80.6156 187.782 80.3633C188.132 80.1029 188.307 79.7651 188.307 79.3501ZM201.374 79.3501C201.374 78.9188 201.158 78.5811 200.727 78.3369C200.303 78.0846 199.62 77.8608 198.676 77.6655C195.535 77.0063 193.964 75.6717 193.964 73.6616C193.964 72.4897 194.448 71.5132 195.417 70.7319C196.393 69.9425 197.667 69.5479 199.237 69.5479C200.914 69.5479 202.252 69.9425 203.253 70.7319C204.263 71.5213 204.767 72.5467 204.767 73.8081H201.239C201.239 73.3035 201.076 72.8885 200.751 72.563C200.425 72.2293 199.917 72.0625 199.225 72.0625C198.631 72.0625 198.171 72.1968 197.846 72.4653C197.52 72.7339 197.357 73.0757 197.357 73.4907C197.357 73.8813 197.541 74.1987 197.907 74.4429C198.281 74.6789 198.908 74.8864 199.787 75.0654C200.666 75.2363 201.406 75.4316 202.008 75.6514C203.872 76.335 204.804 77.519 204.804 79.2036C204.804 80.408 204.287 81.3846 203.253 82.1333C202.22 82.8739 200.885 83.2441 199.25 83.2441C198.143 83.2441 197.158 83.0488 196.295 82.6582C195.441 82.2594 194.77 81.7183 194.281 81.0347C193.793 80.3429 193.549 79.5983 193.549 78.8008H196.894C196.926 79.4274 197.158 79.9076 197.589 80.2412C198.021 80.5749 198.598 80.7417 199.323 80.7417C199.998 80.7417 200.507 80.6156 200.849 80.3633C201.199 80.1029 201.374 79.7651 201.374 79.3501ZM224.637 75.7368H217.606V83H213.944V65.2266H225.516V68.1929H217.606V72.7827H224.637V75.7368ZM234.713 73.1001C234.233 73.035 233.809 73.0024 233.443 73.0024C232.109 73.0024 231.234 73.4541 230.819 74.3574V83H227.291V69.792H230.623L230.721 71.3667C231.429 70.1541 232.41 69.5479 233.663 69.5479C234.054 69.5479 234.42 69.6007 234.762 69.7065L234.713 73.1001ZM242.457 83.2441C240.52 83.2441 238.941 82.6501 237.72 81.4619C236.508 80.2738 235.902 78.6909 235.902 76.7134V76.3716C235.902 75.0451 236.158 73.861 236.671 72.8193C237.183 71.7695 237.908 70.9639 238.843 70.4023C239.787 69.8327 240.862 69.5479 242.066 69.5479C243.873 69.5479 245.293 70.1175 246.326 71.2568C247.368 72.3962 247.889 74.0116 247.889 76.103V77.5435H239.478C239.592 78.4061 239.934 79.0978 240.504 79.6187C241.081 80.1395 241.81 80.3999 242.689 80.3999C244.048 80.3999 245.11 79.9076 245.875 78.9229L247.608 80.8638C247.079 81.6125 246.363 82.1984 245.46 82.6216C244.556 83.0366 243.555 83.2441 242.457 83.2441ZM242.054 72.4043C241.354 72.4043 240.784 72.6403 240.345 73.1123C239.914 73.5843 239.637 74.2598 239.515 75.1387H244.422V74.8579C244.406 74.0767 244.194 73.4744 243.787 73.0513C243.38 72.62 242.803 72.4043 242.054 72.4043ZM256.182 83.2441C254.245 83.2441 252.667 82.6501 251.446 81.4619C250.233 80.2738 249.627 78.6909 249.627 76.7134V76.3716C249.627 75.0451 249.883 73.861 250.396 72.8193C250.909 71.7695 251.633 70.9639 252.569 70.4023C253.513 69.8327 254.587 69.5479 255.792 69.5479C257.598 69.5479 259.018 70.1175 260.052 71.2568C261.093 72.3962 261.614 74.0116 261.614 76.103V77.5435H253.204C253.318 78.4061 253.659 79.0978 254.229 79.6187C254.807 80.1395 255.535 80.3999 256.414 80.3999C257.773 80.3999 258.835 79.9076 259.6 78.9229L261.333 80.8638C260.805 81.6125 260.088 82.1984 259.185 82.6216C258.282 83.0366 257.281 83.2441 256.182 83.2441ZM255.779 72.4043C255.079 72.4043 254.51 72.6403 254.07 73.1123C253.639 73.5843 253.362 74.2598 253.24 75.1387H258.147V74.8579C258.131 74.0767 257.92 73.4744 257.513 73.0513C257.106 72.62 256.528 72.4043 255.779 72.4043ZM270.486 83V65.2266H275.955C277.517 65.2266 278.913 65.5806 280.142 66.2886C281.379 66.9884 282.343 67.9894 283.035 69.2915C283.726 70.5854 284.072 72.0584 284.072 73.7104V74.5283C284.072 76.1803 283.731 77.6493 283.047 78.9351C282.372 80.2209 281.415 81.2178 280.178 81.9258C278.941 82.6338 277.546 82.9919 275.991 83H270.486ZM274.148 68.1929V80.0581H275.918C277.35 80.0581 278.445 79.5902 279.202 78.6543C279.959 77.7184 280.345 76.3797 280.361 74.6382V73.6982C280.361 71.8916 279.987 70.5244 279.238 69.5967C278.49 68.6608 277.395 68.1929 275.955 68.1929H274.148ZM294.136 73.1001C293.656 73.035 293.232 73.0024 292.866 73.0024C291.531 73.0024 290.657 73.4541 290.242 74.3574V83H286.714V69.792H290.046L290.144 71.3667C290.852 70.1541 291.833 69.5479 293.086 69.5479C293.476 69.5479 293.843 69.6007 294.184 69.7065L294.136 73.1001ZM299.768 83H296.228V69.792H299.768V83ZM296.02 66.374C296.02 65.8451 296.195 65.4097 296.545 65.0679C296.903 64.7261 297.387 64.5552 297.998 64.5552C298.6 64.5552 299.08 64.7261 299.438 65.0679C299.796 65.4097 299.975 65.8451 299.975 66.374C299.975 66.9111 299.792 67.3506 299.426 67.6924C299.068 68.0342 298.592 68.2051 297.998 68.2051C297.404 68.2051 296.924 68.0342 296.557 67.6924C296.199 67.3506 296.02 66.9111 296.02 66.374ZM306.132 69.792L306.242 71.3179C307.186 70.1379 308.452 69.5479 310.039 69.5479C311.438 69.5479 312.48 69.9588 313.164 70.7808C313.847 71.6027 314.197 72.8315 314.213 74.4673V83H310.686V74.5527C310.686 73.804 310.523 73.2629 310.197 72.9292C309.872 72.5874 309.331 72.4165 308.574 72.4165C307.581 72.4165 306.836 72.8397 306.34 73.686V83H302.812V69.792H306.132ZM321.896 77.7021L320.627 78.9717V83H317.099V64.25H320.627V74.6382L321.31 73.7593L324.692 69.792H328.928L324.155 75.2974L329.343 83H325.29L321.896 77.7021ZM337.807 79.3501C337.807 78.9188 337.591 78.5811 337.16 78.3369C336.737 78.0846 336.053 77.8608 335.109 77.6655C331.968 77.0063 330.397 75.6717 330.397 73.6616C330.397 72.4897 330.881 71.5132 331.85 70.7319C332.826 69.9425 334.1 69.5479 335.671 69.5479C337.347 69.5479 338.686 69.9425 339.687 70.7319C340.696 71.5213 341.2 72.5467 341.2 73.8081H337.672C337.672 73.3035 337.51 72.8885 337.184 72.563C336.859 72.2293 336.35 72.0625 335.658 72.0625C335.064 72.0625 334.604 72.1968 334.279 72.4653C333.953 72.7339 333.791 73.0757 333.791 73.4907C333.791 73.8813 333.974 74.1987 334.34 74.4429C334.714 74.6789 335.341 74.8864 336.22 75.0654C337.099 75.2363 337.839 75.4316 338.441 75.6514C340.305 76.335 341.237 77.519 341.237 79.2036C341.237 80.408 340.72 81.3846 339.687 82.1333C338.653 82.8739 337.318 83.2441 335.683 83.2441C334.576 83.2441 333.591 83.0488 332.729 82.6582C331.874 82.2594 331.203 81.7183 330.714 81.0347C330.226 80.3429 329.982 79.5983 329.982 78.8008H333.327C333.359 79.4274 333.591 79.9076 334.023 80.2412C334.454 80.5749 335.032 80.7417 335.756 80.7417C336.431 80.7417 336.94 80.6156 337.282 80.3633C337.632 80.1029 337.807 79.7651 337.807 79.3501Z" fill="#0F2336"/>
<path d="M57 57C57 52.5817 60.5817 49 65 49H99C103.418 49 107 52.5817 107 57V91C107 95.4183 103.418 99 99 99H65C60.5817 99 57 95.4183 57 91V57Z" fill="#F6F7F8"/>
<g clip-path="url(#clip0_1_145)">
<path d="M75.6 71.9C75.5 71.9 75.2 71.8 74.9 71.8H73.4V73.9H74.9C75.4 73.9 75.8 73.8 76 73.6C76.2 73.4 76.3 73.2 76.3 72.8C76.3 72.6 76.2 72.3 76.1 72.2C76 72.1 75.8 72 75.6 71.9Z" fill="#F8A644"/>
<path d="M79.5 71.8C79.4 72.2 79.3 72.5 79.2 72.9L78.6 74.6H80.6L79.9 73C79.7 72.5 79.6 72.1 79.5 71.8Z" fill="#F8A644"/>
<path d="M96.5 73.2C96.5 71.9 97.4 70.7 98.6 70.3V65C98.6 63.9 97.7 63 96.6 63H68C66.9 63 66 63.9 66 65V70.3C67.2 70.7 68.1 71.9 68.1 73.2C68.1 74.5 67.2 75.7 66 76.1V82.4C66 83.5 66.9 84.4 68 84.4H96.5C97.6 84.4 98.5 83.5 98.5 82.4V76.1C97.4 75.7 96.5 74.5 96.5 73.2ZM74.9 74.6H73.4V77H72.6V71.2H74.8C75.2 71.2 75.5 71.2 75.7 71.3C76 71.3 76.2 71.4 76.4 71.6C76.6 71.7 76.8 71.9 76.9 72.2C77 72.4 77.1 72.7 77.1 73C77.1 73.5 76.9 73.9 76.6 74.3C76.3 74.5 75.7 74.6 74.9 74.6ZM81.4 77L80.7 75.2H78.3L77.6 77H76.8L79 71.2H79.8L82.2 77H81.4ZM87 76.2C86.8 76.5 86.6 76.7 86.2 76.8C85.9 77 85.5 77 85.1 77C84.6 77 84.1 76.9 83.8 76.8C83.4 76.6 83.2 76.4 83 76.1C82.8 75.8 82.7 75.4 82.7 75.1L83.4 75C83.4 75.3 83.5 75.5 83.6 75.7C83.7 75.9 83.9 76 84.2 76.2C84.5 76.3 84.8 76.4 85.1 76.4C85.4 76.4 85.7 76.4 85.9 76.3C86.1 76.2 86.3 76.1 86.4 75.9C86.5 75.7 86.6 75.6 86.6 75.4C86.6 75.2 86.5 75.1 86.4 74.9C86.3 74.8 86.1 74.6 85.9 74.6C85.7 74.5 85.4 74.4 84.9 74.3C84.4 74.2 84 74.1 83.8 73.9C83.5 73.8 83.3 73.6 83.2 73.4C83.1 73.2 83 72.9 83 72.7C83 72.4 83.1 72.1 83.3 71.9C83.5 71.6 83.7 71.4 84 71.3C84.3 71.2 84.7 71.1 85.1 71.1C85.5 71.1 85.9 71.2 86.2 71.3C86.5 71.4 86.8 71.6 87 71.9C87.2 72.2 87.3 72.5 87.3 72.8L86.6 72.9C86.6 72.5 86.4 72.3 86.2 72.1C86 71.9 85.6 71.8 85.2 71.8C84.7 71.8 84.4 71.9 84.2 72.1C84 72.3 83.9 72.5 83.9 72.7C83.9 72.9 84 73.1 84.1 73.2C84.2 73.3 84.6 73.5 85.3 73.6C85.9 73.7 86.4 73.9 86.6 74C86.9 74.2 87.2 74.4 87.4 74.6C87.6 74.8 87.6 75.1 87.6 75.4C87.3 75.7 87.2 76 87 76.2ZM92.5 76.2C92.3 76.5 92.1 76.7 91.7 76.8C91.4 77 91 77 90.6 77C90.1 77 89.6 76.9 89.3 76.8C88.9 76.6 88.7 76.4 88.5 76.1C88.3 75.8 88.2 75.4 88.2 75.1L88.9 75C88.9 75.3 89 75.5 89.1 75.7C89.2 75.9 89.4 76 89.7 76.2C90 76.3 90.3 76.4 90.6 76.4C90.9 76.4 91.2 76.4 91.4 76.3C91.6 76.2 91.8 76.1 91.9 75.9C92 75.7 92.1 75.6 92.1 75.4C92.1 75.2 92 75.1 91.9 74.9C91.8 74.8 91.6 74.6 91.4 74.6C91.2 74.5 90.9 74.4 90.4 74.3C89.9 74.2 89.5 74.1 89.3 73.9C89 73.8 88.8 73.6 88.7 73.4C88.6 73.2 88.5 72.9 88.5 72.7C88.5 72.4 88.6 72.1 88.7 71.9C88.9 71.6 89.1 71.4 89.4 71.3C89.7 71.2 90.1 71.1 90.5 71.1C90.9 71.1 91.3 71.2 91.6 71.3C91.9 71.4 92.2 71.6 92.4 71.9C92.6 72.2 92.7 72.5 92.7 72.8L92 72.9C92 72.5 91.8 72.3 91.6 72.1C91.4 71.9 91 71.8 90.6 71.8C90.1 71.8 89.8 71.9 89.6 72.1C89.4 72.3 89.3 72.5 89.3 72.7C89.3 72.9 89.4 73.1 89.5 73.2C89.6 73.3 90 73.5 90.7 73.6C91.3 73.7 91.8 73.9 92 74C92.3 74.2 92.6 74.4 92.8 74.6C93 74.8 93 75.1 93 75.4C92.7 75.7 92.6 76 92.5 76.2Z" fill="#F8A644"/>
</g>
<defs>
<filter id="filter0_d_1_145" x="0" y="0" width="519" height="243" filterUnits="userSpaceOnUse" color-interpolation-filters="sRGB">
<feFlood flood-opacity="0" result="BackgroundImageFix"/>
<feColorMatrix in="SourceAlpha" type="matrix" values="0 0 0 0 0 0 0 0 0 0 0 0 0 0 0 0 0 0 127 0" result="hardAlpha"/>
<feOffset dy="8"/>
<feGaussianBlur stdDeviation="16"/>
<feColorMatrix type="matrix" values="0 0 0 0 0.0588235 0 0 0 0 0.137255 0 0 0 0 0.211765 0 0 0 0.06 0"/>
<feBlend mode="normal" in2="BackgroundImageFix" result="effect1_dropShadow_1_145"/>
<feBlend mode="normal" in="SourceGraphic" in2="effect1_dropShadow_1_145" result="shape"/>
</filter>
<clipPath id="clip0_1_145">
<rect width="33" height="22" fill="white" transform="translate(66 63)"/>
</clipPath>
</defs>
</svg>
